<svg xmlns="http://www.w3.org/2000/svg" xmlns:xlink="http://www.w3.org/1999/xlink" width="1500" zoomAndPan="magnify" viewBox="0 0 1125 283.499996" height="378" preserveAspectRatio="xMidYMid meet" version="1.0"><defs><g/><clipPath id="5e4a608551"><rect x="0" width="1104" y="0" height="192"/></clipPath></defs><g transform="matrix(1, 0, 0, 1, 11, 45)"><g clip-path="url(#5e4a608551)"><g fill="#ffffff" fill-opacity="1"><g transform="translate(0.45091, 158.813337)"><g><path d="M 7.953125 -106.5625 L 114.515625 -106.5625 L 114.515625 -81.4375 L 33.078125 -81.4375 L 33.078125 -65.84375 L 114.515625 -65.84375 L 114.515625 -40.71875 L 33.078125 -40.71875 L 33.078125 0 L 7.953125 0 Z M 7.953125 -106.5625 "/></g></g></g><g fill="#ffffff" fill-opacity="1"><g transform="translate(122.904353, 158.813337)"><g><path d="M 7.953125 -106.5625 L 114.515625 -106.5625 L 114.515625 -20.359375 L 94 -20.359375 L 114.1875 0 L 83.65625 0 L 63.78125 -20.359375 L 33.078125 -20.359375 L 33.078125 0 L 7.953125 0 Z M 33.078125 -45.484375 L 89.375 -45.484375 L 89.375 -81.4375 L 33.078125 -81.4375 Z M 33.078125 -45.484375 "/></g></g></g><g fill="#ffffff" fill-opacity="1"><g transform="translate(245.357796, 158.813337)"><g><path d="M 114.515625 -106.5625 L 114.515625 0 L 89.375 0 L 89.375 -20.359375 L 33.078125 -20.359375 L 33.078125 0 L 7.953125 0 L 7.953125 -106.5625 Z M 33.078125 -45.484375 L 89.375 -45.484375 L 89.375 -81.4375 L 33.078125 -81.4375 Z M 33.078125 -45.484375 "/></g></g></g><g fill="#ffffff" fill-opacity="1"><g transform="translate(367.811239, 158.813337)"><g><path d="M 89.375 -106.5625 L 114.515625 -106.5625 L 114.515625 0.796875 L 113.390625 0 L 89.375 0 L 89.375 -17.328125 L 33.078125 -57.25 L 33.078125 0 L 7.953125 0 L 7.953125 -106.5625 L 33.078125 -106.5625 L 33.078125 -89.0625 L 89.375 -49.140625 Z M 89.375 -106.5625 "/></g></g></g><g fill="#ffffff" fill-opacity="1"><g transform="translate(490.264682, 158.813337)"><g><path d="M 7.953125 -106.5625 L 114.515625 -106.5625 L 114.515625 -81.4375 L 33.078125 -81.4375 L 33.078125 -25.125 L 114.515625 -25.125 L 114.515625 0 L 7.953125 0 Z M 7.953125 -106.5625 "/></g></g></g><g fill="#ffffff" fill-opacity="1"><g transform="translate(612.718157, 158.813337)"><g><path d="M 114.515625 -81.4375 L 33.078125 -81.4375 L 33.078125 -65.84375 L 114.515625 -65.84375 L 114.515625 -40.71875 L 33.078125 -40.71875 L 33.078125 -25.125 L 114.515625 -25.125 L 114.515625 0 L 7.953125 0 L 7.953125 -106.5625 L 114.515625 -106.5625 Z M 114.515625 -81.4375 "/></g></g></g><g fill="#ffffff" fill-opacity="1"><g transform="translate(735.171568, 158.813337)"><g><path d="M 7.953125 -25.125 L 89.375 -25.125 L 89.375 -40.71875 L 7.953125 -40.71875 L 7.953125 -106.5625 L 114.515625 -106.5625 L 114.515625 -81.4375 L 33.078125 -81.4375 L 33.078125 -65.84375 L 114.515625 -65.84375 L 114.515625 0 L 7.953125 0 Z M 7.953125 -25.125 "/></g></g></g><g fill="#ffffff" fill-opacity="1"><g transform="translate(857.624979, 158.813337)"><g><path d="M 7.953125 -106.5625 L 114.515625 -106.5625 L 114.515625 -81.4375 L 33.078125 -81.4375 L 33.078125 -25.125 L 114.515625 -25.125 L 114.515625 0 L 7.953125 0 Z M 7.953125 -106.5625 "/></g></g></g><g fill="#ffffff" fill-opacity="1"><g transform="translate(980.078453, 158.813337)"><g><path d="M 33.078125 -81.4375 L 33.078125 -25.125 L 89.375 -25.125 L 89.375 -81.4375 Z M 7.953125 0 L 7.953125 -106.5625 L 114.515625 -106.5625 L 114.515625 0 Z M 7.953125 0 "/></g></g></g></g></g></svg>