<svg xmlns="http://www.w3.org/2000/svg" xmlns:xlink="http://www.w3.org/1999/xlink" width="1500" zoomAndPan="magnify" viewBox="0 0 1125 283.499996" height="378" preserveAspectRatio="xMidYMid meet" version="1.0"><defs><g/><clipPath id="c53316acfd"><path d="M 164.792969 188.082031 L 260.027344 188.082031 L 260.027344 233.316406 L 164.792969 233.316406 Z M 164.792969 188.082031 " clip-rule="nonzero"/></clipPath><clipPath id="33553bd330"><path d="M 212.40625 188.082031 L 260.019531 210.699219 L 212.40625 233.316406 L 164.792969 210.699219 Z M 212.40625 188.082031 " clip-rule="nonzero"/></clipPath><clipPath id="a44211634a"><path d="M 0.792969 0.0820312 L 96.027344 0.0820312 L 96.027344 45.316406 L 0.792969 45.316406 Z M 0.792969 0.0820312 " clip-rule="nonzero"/></clipPath><clipPath id="613a4cf2d4"><path d="M 48.40625 0.0820312 L 96.019531 22.699219 L 48.40625 45.316406 L 0.792969 22.699219 Z M 48.40625 0.0820312 " clip-rule="nonzero"/></clipPath><clipPath id="240e177786"><rect x="0" width="97" y="0" height="46"/></clipPath><clipPath id="73a991d073"><path d="M 38.511719 182.691406 L 133.746094 182.691406 L 133.746094 227.921875 L 38.511719 227.921875 Z M 38.511719 182.691406 " clip-rule="nonzero"/></clipPath><clipPath id="4cd0b49f0a"><path d="M 86.125 182.691406 L 133.734375 205.308594 L 86.125 227.921875 L 38.511719 205.308594 Z M 86.125 182.691406 " clip-rule="nonzero"/></clipPath><clipPath id="bbc2ccdb2a"><path d="M 0.511719 0.691406 L 95.746094 0.691406 L 95.746094 45.921875 L 0.511719 45.921875 Z M 0.511719 0.691406 " clip-rule="nonzero"/></clipPath><clipPath id="a2c140cd99"><path d="M 48.125 0.691406 L 95.734375 23.308594 L 48.125 45.921875 L 0.511719 23.308594 Z M 48.125 0.691406 " clip-rule="nonzero"/></clipPath><clipPath id="1d5c884e38"><rect x="0" width="96" y="0" height="46"/></clipPath><clipPath id="5f56400935"><path d="M 34.449219 103.957031 L 267.574219 103.957031 L 267.574219 261.425781 L 34.449219 261.425781 Z M 34.449219 103.957031 " clip-rule="nonzero"/></clipPath><clipPath id="a1248fb42b"><path d="M 150.902344 103.957031 L 267.355469 182.691406 L 150.902344 261.425781 L 34.449219 182.691406 Z M 150.902344 103.957031 " clip-rule="nonzero"/></clipPath><clipPath id="f582c90843"><path d="M 0.449219 0.957031 L 233.402344 0.957031 L 233.402344 158.425781 L 0.449219 158.425781 Z M 0.449219 0.957031 " clip-rule="nonzero"/></clipPath><clipPath id="6087458807"><path d="M 116.902344 0.957031 L 233.355469 79.691406 L 116.902344 158.425781 L 0.449219 79.691406 Z M 116.902344 0.957031 " clip-rule="nonzero"/></clipPath><clipPath id="1df66d18b1"><rect x="0" width="234" y="0" height="159"/></clipPath><clipPath id="f7ba5630c5"><path d="M 63.964844 43.664062 L 232.984375 43.664062 L 232.984375 248.996094 L 63.964844 248.996094 Z M 63.964844 43.664062 " clip-rule="nonzero"/></clipPath><clipPath id="1562239f82"><path d="M 148.472656 43.664062 L 232.984375 146.109375 L 148.472656 248.558594 L 63.964844 146.109375 Z M 148.472656 43.664062 " clip-rule="nonzero"/></clipPath><clipPath id="eb4f0caa00"><path d="M 0.964844 0.664062 L 169.984375 0.664062 L 169.984375 205.679688 L 0.964844 205.679688 Z M 0.964844 0.664062 " clip-rule="nonzero"/></clipPath><clipPath id="d07f5fbb27"><path d="M 85.472656 0.664062 L 169.984375 103.109375 L 85.472656 205.558594 L 0.964844 103.109375 Z M 85.472656 0.664062 " clip-rule="nonzero"/></clipPath><clipPath id="923bbe7c1b"><rect x="0" width="170" y="0" height="206"/></clipPath></defs><g clip-path="url(#c53316acfd)"><g clip-path="url(#33553bd330)"><g transform="matrix(1, 0, 0, 1, 164, 188)"><g clip-path="url(#240e177786)"><g clip-path="url(#a44211634a)"><g clip-path="url(#613a4cf2d4)"><path fill="#ffffff" d="M 0.792969 0.0820312 L 96.027344 0.0820312 L 96.027344 45.316406 L 0.792969 45.316406 Z M 0.792969 0.0820312 " fill-opacity="1" fill-rule="nonzero"/></g></g></g></g></g></g><g clip-path="url(#73a991d073)"><g clip-path="url(#4cd0b49f0a)"><g transform="matrix(1, 0, 0, 1, 38, 182)"><g clip-path="url(#1d5c884e38)"><g clip-path="url(#bbc2ccdb2a)"><g clip-path="url(#a2c140cd99)"><path fill="#ffffff" d="M 0.511719 0.691406 L 95.746094 0.691406 L 95.746094 45.921875 L 0.511719 45.921875 Z M 0.511719 0.691406 " fill-opacity="1" fill-rule="nonzero"/></g></g></g></g></g></g><g clip-path="url(#5f56400935)"><g clip-path="url(#a1248fb42b)"><g transform="matrix(1, 0, 0, 1, 34, 103)"><g clip-path="url(#1df66d18b1)"><g clip-path="url(#f582c90843)"><g clip-path="url(#6087458807)"><path fill="#ffffff" d="M 0.449219 0.957031 L 233.574219 0.957031 L 233.574219 158.425781 L 0.449219 158.425781 Z M 0.449219 0.957031 " fill-opacity="1" fill-rule="nonzero"/></g></g></g></g></g></g><g clip-path="url(#f7ba5630c5)"><g clip-path="url(#1562239f82)"><g transform="matrix(1, 0, 0, 1, 63, 43)"><g clip-path="url(#923bbe7c1b)"><g clip-path="url(#eb4f0caa00)"><g clip-path="url(#d07f5fbb27)"><path fill="#ffffff" d="M 0.964844 0.664062 L 169.984375 0.664062 L 169.984375 205.335938 L 0.964844 205.335938 Z M 0.964844 0.664062 " fill-opacity="1" fill-rule="nonzero"/></g></g></g></g></g></g><path fill="#d9d9d9" d="M 148.863281 113.59375 C 137.144531 113.59375 99.363281 174.820312 105.097656 185.125 C 110.84375 195.453125 186.949219 195.347656 192.628906 185.125 C 198.308594 174.925781 160.636719 113.59375 148.863281 113.59375 Z M 148.863281 113.59375 " fill-opacity="1" fill-rule="nonzero"/><path fill="#d9d9d9" d="M 148.863281 22.085938 C 113.488281 22.085938 -0.34375 206.535156 17 237.691406 C 34.347656 268.835938 263.566406 268.476562 280.738281 237.691406 C 297.910156 206.894531 184.25 22.085938 148.851562 22.085938 Z M 235.300781 210.691406 C 224.050781 230.871094 73.867188 231.113281 62.480469 210.691406 C 51.121094 190.269531 125.71875 69.398438 148.863281 69.398438 C 172.011719 69.398438 246.554688 190.472656 235.300781 210.691406 Z M 235.300781 210.691406 " fill-opacity="1" fill-rule="nonzero"/><g fill="#ffffff" fill-opacity="1"><g transform="translate(286.993073, 185.103452)"><g><path d="M 5.78125 -77.453125 L 83.234375 -77.453125 L 83.234375 -59.1875 L 24.046875 -59.1875 L 24.046875 -47.859375 L 83.234375 -47.859375 L 83.234375 -29.59375 L 24.046875 -29.59375 L 24.046875 0 L 5.78125 0 Z M 5.78125 -77.453125 "/></g></g></g><g fill="#ffffff" fill-opacity="1"><g transform="translate(376.004211, 185.103452)"><g><path d="M 5.78125 -77.453125 L 83.234375 -77.453125 L 83.234375 -14.796875 L 68.3125 -14.796875 L 83 0 L 60.8125 0 L 46.359375 -14.796875 L 24.046875 -14.796875 L 24.046875 0 L 5.78125 0 Z M 24.046875 -33.0625 L 64.96875 -33.0625 L 64.96875 -59.1875 L 24.046875 -59.1875 Z M 24.046875 -33.0625 "/></g></g></g><g fill="#ffffff" fill-opacity="1"><g transform="translate(465.01535, 185.103452)"><g><path d="M 83.234375 -77.453125 L 83.234375 0 L 64.96875 0 L 64.96875 -14.796875 L 24.046875 -14.796875 L 24.046875 0 L 5.78125 0 L 5.78125 -77.453125 Z M 24.046875 -33.0625 L 64.96875 -33.0625 L 64.96875 -59.1875 L 24.046875 -59.1875 Z M 24.046875 -33.0625 "/></g></g></g><g fill="#ffffff" fill-opacity="1"><g transform="translate(554.026488, 185.103452)"><g><path d="M 64.96875 -77.453125 L 83.234375 -77.453125 L 83.234375 0.578125 L 82.421875 0 L 64.96875 0 L 64.96875 -12.59375 L 24.046875 -41.609375 L 24.046875 0 L 5.78125 0 L 5.78125 -77.453125 L 24.046875 -77.453125 L 24.046875 -64.734375 L 64.96875 -35.71875 Z M 64.96875 -77.453125 "/></g></g></g><g fill="#ffffff" fill-opacity="1"><g transform="translate(643.037626, 185.103452)"><g><path d="M 5.78125 -77.453125 L 83.234375 -77.453125 L 83.234375 -59.1875 L 24.046875 -59.1875 L 24.046875 -18.265625 L 83.234375 -18.265625 L 83.234375 0 L 5.78125 0 Z M 5.78125 -77.453125 "/></g></g></g><g fill="#ffffff" fill-opacity="1"><g transform="translate(732.048787, 185.103452)"><g><path d="M 83.234375 -59.1875 L 24.046875 -59.1875 L 24.046875 -47.859375 L 83.234375 -47.859375 L 83.234375 -29.59375 L 24.046875 -29.59375 L 24.046875 -18.265625 L 83.234375 -18.265625 L 83.234375 0 L 5.78125 0 L 5.78125 -77.453125 L 83.234375 -77.453125 Z M 83.234375 -59.1875 "/></g></g></g><g fill="#ffffff" fill-opacity="1"><g transform="translate(821.059902, 185.103452)"><g><path d="M 5.78125 -18.265625 L 64.96875 -18.265625 L 64.96875 -29.59375 L 5.78125 -29.59375 L 5.78125 -77.453125 L 83.234375 -77.453125 L 83.234375 -59.1875 L 24.046875 -59.1875 L 24.046875 -47.859375 L 83.234375 -47.859375 L 83.234375 0 L 5.78125 0 Z M 5.78125 -18.265625 "/></g></g></g><g fill="#ffffff" fill-opacity="1"><g transform="translate(910.071017, 185.103452)"><g><path d="M 5.78125 -77.453125 L 83.234375 -77.453125 L 83.234375 -59.1875 L 24.046875 -59.1875 L 24.046875 -18.265625 L 83.234375 -18.265625 L 83.234375 0 L 5.78125 0 Z M 5.78125 -77.453125 "/></g></g></g><g fill="#ffffff" fill-opacity="1"><g transform="translate(999.082178, 185.103452)"><g><path d="M 24.046875 -59.1875 L 24.046875 -18.265625 L 64.96875 -18.265625 L 64.96875 -59.1875 Z M 5.78125 0 L 5.78125 -77.453125 L 83.234375 -77.453125 L 83.234375 0 Z M 5.78125 0 "/></g></g></g></svg>