<svg width="1302" height="378" xmlns="http://www.w3.org/2000/svg" stroke="#3e0594" fill="none">

 <g>
  <title>Layer 1</title>
  <g stroke-width="0" id="SVGRepo_bgCarrier"/>
  <g stroke-width="0" stroke-linejoin="round" stroke-linecap="round" id="SVGRepo_tracerCarrier"/>
  <g stroke="null" stroke-width="0" id="SVGRepo_iconCarrier">
   <g stroke="null" id="svg_1" fill="#9d07bb">
    <path stroke="null" id="svg_2" d="m197.51244,151.72631c-15.65446,0 -66.11646,81.77653 -58.4588,95.54153c7.67551,13.7969 109.33134,13.65335 116.9176,0c7.58626,-13.62145 -42.73294,-95.54153 -58.4588,-95.54153z"/>
    <path stroke="null" id="svg_3" d="m197.51244,29.50015c-47.24899,0 -199.29542,246.36634 -176.1261,287.98034c23.16932,41.59805 329.33278,41.11954 352.27005,0c22.93727,-41.13549 -128.87711,-287.98034 -176.1618,-287.98034l0.01785,0zm115.4539,251.917c-15.02971,26.95579 -215.62819,27.27479 -230.8364,0c-15.17251,-27.27479 84.46627,-188.72243 115.3825,-188.72243c30.91623,0 130.48361,161.71879 115.4539,188.72243z"/>
   </g>
  </g>
  <text font-weight="bold" transform="matrix(6.10592 0 0 7.58744 -3276.38 -840.554)" stroke="#000" xml:space="preserve" text-anchor="start" font-family="'Trispace'" font-size="24" id="svg_5" y="144.94263" x="601.70376" stroke-width="0" fill="#ffffff">My-scyfin</text>
 </g>
</svg>