<svg xmlns="http://www.w3.org/2000/svg" xmlns:xlink="http://www.w3.org/1999/xlink" width="1500" zoomAndPan="magnify" viewBox="0 0 1125 283.499996" height="378" preserveAspectRatio="xMidYMid meet" version="1.0"><defs><g/><clipPath id="9d999bff1a"><path d="M 164.792969 188.082031 L 260.027344 188.082031 L 260.027344 233.316406 L 164.792969 233.316406 Z M 164.792969 188.082031 " clip-rule="nonzero"/></clipPath><clipPath id="68612d328d"><path d="M 212.40625 188.082031 L 260.019531 210.699219 L 212.40625 233.316406 L 164.792969 210.699219 Z M 212.40625 188.082031 " clip-rule="nonzero"/></clipPath><clipPath id="8c44ea8e4c"><path d="M 0.792969 0.0820312 L 96.027344 0.0820312 L 96.027344 45.316406 L 0.792969 45.316406 Z M 0.792969 0.0820312 " clip-rule="nonzero"/></clipPath><clipPath id="1a6d4455f4"><path d="M 48.40625 0.0820312 L 96.019531 22.699219 L 48.40625 45.316406 L 0.792969 22.699219 Z M 48.40625 0.0820312 " clip-rule="nonzero"/></clipPath><clipPath id="bce3345d73"><rect x="0" width="97" y="0" height="46"/></clipPath><clipPath id="e9f2df9ac2"><path d="M 38.511719 182.691406 L 133.746094 182.691406 L 133.746094 227.921875 L 38.511719 227.921875 Z M 38.511719 182.691406 " clip-rule="nonzero"/></clipPath><clipPath id="cdeaf77b35"><path d="M 86.125 182.691406 L 133.734375 205.308594 L 86.125 227.921875 L 38.511719 205.308594 Z M 86.125 182.691406 " clip-rule="nonzero"/></clipPath><clipPath id="b6a9ae6f51"><path d="M 0.511719 0.691406 L 95.746094 0.691406 L 95.746094 45.921875 L 0.511719 45.921875 Z M 0.511719 0.691406 " clip-rule="nonzero"/></clipPath><clipPath id="12de6f1eb8"><path d="M 48.125 0.691406 L 95.734375 23.308594 L 48.125 45.921875 L 0.511719 23.308594 Z M 48.125 0.691406 " clip-rule="nonzero"/></clipPath><clipPath id="353e1b20c3"><rect x="0" width="96" y="0" height="46"/></clipPath><clipPath id="5c3d734457"><path d="M 34.449219 103.957031 L 267.574219 103.957031 L 267.574219 261.425781 L 34.449219 261.425781 Z M 34.449219 103.957031 " clip-rule="nonzero"/></clipPath><clipPath id="b1af2204bf"><path d="M 150.902344 103.957031 L 267.355469 182.691406 L 150.902344 261.425781 L 34.449219 182.691406 Z M 150.902344 103.957031 " clip-rule="nonzero"/></clipPath><clipPath id="41594a2fde"><path d="M 0.449219 0.957031 L 233.402344 0.957031 L 233.402344 158.425781 L 0.449219 158.425781 Z M 0.449219 0.957031 " clip-rule="nonzero"/></clipPath><clipPath id="f75221eac7"><path d="M 116.902344 0.957031 L 233.355469 79.691406 L 116.902344 158.425781 L 0.449219 79.691406 Z M 116.902344 0.957031 " clip-rule="nonzero"/></clipPath><clipPath id="abb99f7a97"><rect x="0" width="234" y="0" height="159"/></clipPath><clipPath id="ac5049b802"><path d="M 63.964844 43.664062 L 232.984375 43.664062 L 232.984375 248.996094 L 63.964844 248.996094 Z M 63.964844 43.664062 " clip-rule="nonzero"/></clipPath><clipPath id="849c5333d0"><path d="M 148.472656 43.664062 L 232.984375 146.109375 L 148.472656 248.558594 L 63.964844 146.109375 Z M 148.472656 43.664062 " clip-rule="nonzero"/></clipPath><clipPath id="a6230b65f1"><path d="M 0.964844 0.664062 L 169.984375 0.664062 L 169.984375 205.679688 L 0.964844 205.679688 Z M 0.964844 0.664062 " clip-rule="nonzero"/></clipPath><clipPath id="30ad84300e"><path d="M 85.472656 0.664062 L 169.984375 103.109375 L 85.472656 205.558594 L 0.964844 103.109375 Z M 85.472656 0.664062 " clip-rule="nonzero"/></clipPath><clipPath id="5e3f7d8472"><rect x="0" width="170" y="0" height="206"/></clipPath><clipPath id="dbae4d79d5"><rect x="0" width="841" y="0" height="153"/></clipPath></defs><g clip-path="url(#9d999bff1a)"><g clip-path="url(#68612d328d)"><g transform="matrix(1, 0, 0, 1, 164, 188)"><g clip-path="url(#bce3345d73)"><g clip-path="url(#8c44ea8e4c)"><g clip-path="url(#1a6d4455f4)"><path fill="#8c52ff" d="M 0.792969 0.0820312 L 96.027344 0.0820312 L 96.027344 45.316406 L 0.792969 45.316406 Z M 0.792969 0.0820312 " fill-opacity="1" fill-rule="nonzero"/></g></g></g></g></g></g><g clip-path="url(#e9f2df9ac2)"><g clip-path="url(#cdeaf77b35)"><g transform="matrix(1, 0, 0, 1, 38, 182)"><g clip-path="url(#353e1b20c3)"><g clip-path="url(#b6a9ae6f51)"><g clip-path="url(#12de6f1eb8)"><path fill="#8c52ff" d="M 0.511719 0.691406 L 95.746094 0.691406 L 95.746094 45.921875 L 0.511719 45.921875 Z M 0.511719 0.691406 " fill-opacity="1" fill-rule="nonzero"/></g></g></g></g></g></g><g clip-path="url(#5c3d734457)"><g clip-path="url(#b1af2204bf)"><g transform="matrix(1, 0, 0, 1, 34, 103)"><g clip-path="url(#abb99f7a97)"><g clip-path="url(#41594a2fde)"><g clip-path="url(#f75221eac7)"><path fill="#8c52ff" d="M 0.449219 0.957031 L 233.574219 0.957031 L 233.574219 158.425781 L 0.449219 158.425781 Z M 0.449219 0.957031 " fill-opacity="1" fill-rule="nonzero"/></g></g></g></g></g></g><g clip-path="url(#ac5049b802)"><g clip-path="url(#849c5333d0)"><g transform="matrix(1, 0, 0, 1, 63, 43)"><g clip-path="url(#5e3f7d8472)"><g clip-path="url(#a6230b65f1)"><g clip-path="url(#30ad84300e)"><path fill="#8c52ff" d="M 0.964844 0.664062 L 169.984375 0.664062 L 169.984375 205.335938 L 0.964844 205.335938 Z M 0.964844 0.664062 " fill-opacity="1" fill-rule="nonzero"/></g></g></g></g></g></g><path fill="#9d07bb" d="M 148.863281 113.59375 C 137.144531 113.59375 99.363281 174.820312 105.097656 185.125 C 110.84375 195.453125 186.949219 195.347656 192.628906 185.125 C 198.308594 174.925781 160.636719 113.59375 148.863281 113.59375 Z M 148.863281 113.59375 " fill-opacity="1" fill-rule="nonzero"/><path fill="#9d07bb" d="M 148.863281 22.085938 C 113.488281 22.085938 -0.34375 206.535156 17 237.691406 C 34.347656 268.835938 263.566406 268.476562 280.738281 237.691406 C 297.910156 206.894531 184.25 22.085938 148.851562 22.085938 Z M 235.300781 210.691406 C 224.050781 230.871094 73.867188 231.113281 62.480469 210.691406 C 51.121094 190.269531 125.71875 69.398438 148.863281 69.398438 C 172.011719 69.398438 246.554688 190.472656 235.300781 210.691406 Z M 235.300781 210.691406 " fill-opacity="1" fill-rule="nonzero"/><g transform="matrix(1, 0, 0, 1, 283, 65)"><g clip-path="url(#dbae4d79d5)"><g fill="#ff00ff" fill-opacity="1"><g transform="translate(3.806087, 119.311039)"><g><path d="M 75.84375 -12.96875 L 52.28125 -74.328125 L 2.890625 -74.328125 C 3.066406 -75.753906 3.257812 -77.160156 3.46875 -78.546875 C 3.675781 -79.929688 3.90625 -81.296875 4.15625 -82.640625 C 7.09375 -82.804688 10.679688 -82.910156 14.921875 -82.953125 C 19.171875 -83.003906 23.75 -83.050781 28.65625 -83.09375 C 33.570312 -83.132812 38.460938 -83.132812 43.328125 -83.09375 C 48.203125 -83.050781 52.78125 -83.003906 57.0625 -82.953125 C 61.351562 -82.910156 64.925781 -82.804688 67.78125 -82.640625 L 80.875 -46.734375 L 95.25 -82.640625 C 98.851562 -82.804688 103.257812 -82.929688 108.46875 -83.015625 C 113.675781 -83.109375 119.132812 -83.15625 124.84375 -83.15625 C 130.5625 -83.15625 136.023438 -83.109375 141.234375 -83.015625 C 146.441406 -82.929688 150.847656 -82.804688 154.453125 -82.640625 C 154.453125 -81.296875 154.453125 -79.929688 154.453125 -78.546875 C 154.453125 -77.160156 154.410156 -75.753906 154.328125 -74.328125 L 104.4375 -74.328125 L 78.484375 -12.96875 Z M 59.71875 -1.265625 L 41.828125 -48.375 L 40.6875 -48.375 L 40.6875 -23.0625 L 47.75 -23.0625 C 47.75 -21.457031 47.75 -19.816406 47.75 -18.140625 C 47.75 -16.460938 47.664062 -14.785156 47.5 -13.109375 L 28.09375 -13.109375 L 28.09375 -71.1875 L 49.765625 -71.1875 L 73.703125 -9.828125 L 80.5 -9.828125 L 106.703125 -71.1875 L 126.109375 -71.1875 L 126.109375 -13.109375 L 101.546875 -13.109375 C 101.710938 -14.785156 101.898438 -16.460938 102.109375 -18.140625 C 102.316406 -19.816406 102.546875 -21.457031 102.796875 -23.0625 L 108.96875 -23.0625 L 108.96875 -48.5 L 107.84375 -48.5 L 89.578125 -1.265625 C 87.554688 -1.097656 85.117188 -0.96875 82.265625 -0.875 C 79.410156 -0.789062 76.492188 -0.75 73.515625 -0.75 C 70.535156 -0.75 67.804688 -0.789062 65.328125 -0.875 C 62.847656 -0.96875 60.976562 -1.097656 59.71875 -1.265625 Z M 2.765625 -13.109375 C 2.941406 -14.785156 3.132812 -16.460938 3.34375 -18.140625 C 3.550781 -19.816406 3.78125 -21.457031 4.03125 -23.0625 L 11.71875 -23.0625 L 11.71875 -59.59375 L 2.015625 -59.59375 C 2.097656 -61.4375 2.179688 -63.320312 2.265625 -65.25 C 2.347656 -67.1875 2.472656 -69.078125 2.640625 -70.921875 L 24.5625 -70.921875 L 24.5625 -13.109375 Z M 154.328125 -13.109375 L 129.640625 -13.109375 L 129.640625 -70.921875 L 154.078125 -70.921875 C 153.910156 -68.910156 153.703125 -66.9375 153.453125 -65 C 153.203125 -63.070312 152.863281 -61.269531 152.4375 -59.59375 L 146.015625 -59.59375 L 146.015625 -23.0625 L 154.578125 -23.0625 C 154.578125 -21.457031 154.578125 -19.816406 154.578125 -18.140625 C 154.578125 -16.460938 154.492188 -14.785156 154.328125 -13.109375 Z M 2.015625 0 C 2.015625 -1.59375 2.054688 -3.226562 2.140625 -4.90625 C 2.222656 -6.59375 2.304688 -8.234375 2.390625 -9.828125 L 47.375 -9.828125 C 47.207031 -8.066406 47.015625 -6.34375 46.796875 -4.65625 C 46.585938 -2.976562 46.316406 -1.425781 45.984375 0 C 41.617188 0.25 36.769531 0.414062 31.4375 0.5 C 26.101562 0.582031 20.851562 0.582031 15.6875 0.5 C 10.519531 0.414062 5.960938 0.25 2.015625 0 Z M 100.65625 0 C 100.738281 -1.59375 100.84375 -3.207031 100.96875 -4.84375 C 101.101562 -6.488281 101.210938 -8.148438 101.296875 -9.828125 L 153.953125 -9.828125 C 153.867188 -8.066406 153.703125 -6.34375 153.453125 -4.65625 C 153.203125 -2.976562 152.90625 -1.425781 152.5625 0 C 149.289062 0.164062 145.320312 0.289062 140.65625 0.375 C 136 0.457031 131.148438 0.5 126.109375 0.5 C 121.066406 0.5 116.300781 0.457031 111.8125 0.375 C 107.320312 0.289062 103.601562 0.164062 100.65625 0 Z M 100.65625 0 "/></g></g></g><g fill="#ff00ff" fill-opacity="1"><g transform="translate(159.13662, 119.311039)"><g><path d="M 99.78125 -54.671875 L 51.03125 -54.671875 C 51.445312 -58.367188 51.945312 -61.5625 52.53125 -64.25 C 55.46875 -64.414062 59.035156 -64.5625 63.234375 -64.6875 C 67.441406 -64.8125 71.832031 -64.875 76.40625 -64.875 C 80.988281 -64.875 85.378906 -64.8125 89.578125 -64.6875 C 93.773438 -64.5625 97.300781 -64.414062 100.15625 -64.25 C 100.15625 -61.144531 100.03125 -57.953125 99.78125 -54.671875 Z M 38.171875 -15.75 L 24.3125 -54.671875 L 1.765625 -54.671875 C 1.929688 -56.441406 2.160156 -58.144531 2.453125 -59.78125 C 2.742188 -61.414062 3.0625 -62.90625 3.40625 -64.25 C 6.84375 -64.5 10.578125 -64.644531 14.609375 -64.6875 C 18.640625 -64.726562 22.691406 -64.726562 26.765625 -64.6875 C 30.835938 -64.644531 34.554688 -64.5 37.921875 -64.25 L 51.40625 -22.546875 L 52.78125 -22.546875 L 59.71875 -42.453125 L 50.140625 -42.453125 C 50.222656 -43.960938 50.304688 -45.453125 50.390625 -46.921875 C 50.472656 -48.398438 50.554688 -49.851562 50.640625 -51.28125 L 77.234375 -51.28125 L 65.390625 -15.75 Z M 9.828125 13.484375 C 10.078125 11.546875 10.390625 9.609375 10.765625 7.671875 C 11.148438 5.742188 11.632812 3.859375 12.21875 2.015625 C 15.414062 2.429688 18.25 2.722656 20.71875 2.890625 C 23.195312 3.066406 25.738281 3.15625 28.34375 3.15625 L 29.234375 3.15625 C 33.429688 3.15625 36.640625 3.003906 38.859375 2.703125 C 41.085938 2.410156 42.707031 1.78125 43.71875 0.8125 C 44.726562 -0.144531 45.523438 -1.675781 46.109375 -3.78125 C 41.410156 -3.695312 36.9375 -3.675781 32.6875 -3.71875 C 28.445312 -3.757812 24.691406 -4.113281 21.421875 -4.78125 L 6.921875 -42.453125 L 1.265625 -42.453125 C 1.265625 -43.878906 1.285156 -45.328125 1.328125 -46.796875 C 1.367188 -48.273438 1.429688 -49.769531 1.515625 -51.28125 L 21.421875 -51.28125 L 35.53125 -12.59375 L 64.375 -12.59375 C 62.363281 -6.882812 60.390625 -2.226562 58.453125 1.375 C 56.523438 4.988281 54.445312 7.800781 52.21875 9.8125 C 49.988281 11.832031 47.425781 13.222656 44.53125 13.984375 C 41.632812 14.742188 38.253906 15.125 34.390625 15.125 C 30.523438 15.125 26.300781 14.972656 21.71875 14.671875 C 17.144531 14.378906 13.179688 13.984375 9.828125 13.484375 Z M 8.8125 27.34375 C 8.8125 25.65625 8.875 23.972656 9 22.296875 C 9.132812 20.617188 9.242188 18.941406 9.328125 17.265625 C 12.765625 17.597656 16.6875 17.910156 21.09375 18.203125 C 25.507812 18.492188 29.898438 18.640625 34.265625 18.640625 C 38.460938 18.640625 42.15625 18.238281 45.34375 17.4375 C 48.539062 16.644531 51.421875 15.21875 53.984375 13.15625 C 56.546875 11.101562 58.914062 8.125 61.09375 4.21875 C 63.28125 0.3125 65.425781 -4.703125 67.53125 -10.828125 L 81.390625 -51.28125 L 99.53125 -51.28125 C 99.101562 -48 98.640625 -45.054688 98.140625 -42.453125 L 92.46875 -42.453125 L 81.140625 -9.703125 C 78.359375 -1.722656 75.644531 4.785156 73 9.828125 C 70.363281 14.867188 67.363281 18.773438 64 21.546875 C 60.632812 24.316406 56.597656 26.222656 51.890625 27.265625 C 47.191406 28.316406 41.441406 28.84375 34.640625 28.84375 C 29.691406 28.84375 24.882812 28.675781 20.21875 28.34375 C 15.5625 28.007812 11.757812 27.675781 8.8125 27.34375 Z M 8.8125 27.34375 "/></g></g></g><g fill="#ff00ff" fill-opacity="1"><g transform="translate(259.918817, 119.311039)"><g><path d="M 58.578125 -35.65625 L 4.40625 -35.65625 C 4.40625 -37.5 4.46875 -39.21875 4.59375 -40.8125 C 4.71875 -42.414062 4.820312 -43.757812 4.90625 -44.84375 L 58.578125 -44.84375 C 58.578125 -43.925781 58.597656 -42.644531 58.640625 -41 C 58.679688 -39.363281 58.660156 -37.582031 58.578125 -35.65625 Z M 4.28125 -32.125 L 58.578125 -32.125 C 58.492188 -30.28125 58.390625 -28.535156 58.265625 -26.890625 C 58.140625 -25.253906 57.992188 -23.890625 57.828125 -22.796875 L 4.40625 -22.796875 C 4.320312 -23.972656 4.28125 -25.378906 4.28125 -27.015625 C 4.28125 -28.660156 4.28125 -30.363281 4.28125 -32.125 Z M 4.28125 -32.125 "/></g></g></g><g fill="#ff00ff" fill-opacity="1"><g transform="translate(322.907693, 119.311039)"><g><path d="M 27.09375 -27.84375 C 21.457031 -28.425781 16.832031 -29.265625 13.21875 -30.359375 C 9.613281 -31.453125 6.96875 -33.148438 5.28125 -35.453125 C 3.601562 -37.765625 2.765625 -41.109375 2.765625 -45.484375 C 2.765625 -49.265625 3.375 -52.5 4.59375 -55.1875 C 5.8125 -57.875 7.992188 -60.078125 11.140625 -61.796875 C 14.296875 -63.515625 18.707031 -64.769531 24.375 -65.5625 C 30.039062 -66.363281 37.285156 -66.765625 46.109375 -66.765625 C 56.015625 -66.765625 64.179688 -66.445312 70.609375 -65.8125 C 77.035156 -65.1875 82.304688 -64.414062 86.421875 -63.5 C 86.421875 -61.476562 86.316406 -58.976562 86.109375 -56 C 85.898438 -53.019531 85.625 -50.035156 85.28125 -47.046875 C 84.945312 -44.066406 84.488281 -41.445312 83.90625 -39.1875 C 81.882812 -39.007812 79.78125 -38.878906 77.59375 -38.796875 C 75.414062 -38.710938 73.238281 -38.671875 71.0625 -38.671875 L 71.0625 -55.1875 C 67.695312 -56.101562 63.851562 -56.726562 59.53125 -57.0625 C 55.207031 -57.40625 50.773438 -57.578125 46.234375 -57.578125 C 36.578125 -57.492188 29.375 -56.234375 24.625 -53.796875 C 19.882812 -51.359375 17.515625 -47.160156 17.515625 -41.203125 C 17.515625 -37.585938 18.375 -34.6875 20.09375 -32.5 C 21.8125 -30.320312 24.144531 -28.769531 27.09375 -27.84375 Z M 21.796875 -11.96875 L 21.796875 -25.078125 C 24.484375 -24.984375 26.851562 -24.9375 28.90625 -24.9375 C 30.96875 -24.9375 33.300781 -24.8125 35.90625 -24.5625 L 35.90625 -18.140625 C 37.082031 -17.972656 38.320312 -17.847656 39.625 -17.765625 C 40.925781 -17.679688 42.289062 -17.640625 43.71875 -17.640625 C 46.65625 -17.640625 48.921875 -17.890625 50.515625 -18.390625 C 52.109375 -18.898438 52.90625 -20.035156 52.90625 -21.796875 C 52.90625 -22.804688 52.503906 -23.601562 51.703125 -24.1875 C 50.910156 -24.78125 49.398438 -25.285156 47.171875 -25.703125 C 44.953125 -26.117188 41.703125 -26.582031 37.421875 -27.09375 C 31.285156 -27.84375 27 -29.539062 24.5625 -32.1875 C 22.125 -34.832031 20.90625 -37.960938 20.90625 -41.578125 C 20.90625 -45.941406 22.773438 -49.109375 26.515625 -51.078125 C 30.253906 -53.054688 36.703125 -54.085938 45.859375 -54.171875 C 48.710938 -54.171875 52.195312 -54.109375 56.3125 -53.984375 C 60.425781 -53.859375 64.125 -53.414062 67.40625 -52.65625 L 67.40625 -38.671875 C 65.050781 -38.671875 62.757812 -38.734375 60.53125 -38.859375 C 58.3125 -38.992188 56.191406 -39.101562 54.171875 -39.1875 L 54.171875 -45.109375 C 52.992188 -45.273438 51.734375 -45.398438 50.390625 -45.484375 C 49.046875 -45.566406 47.957031 -45.609375 47.125 -45.609375 C 43.757812 -45.609375 41.507812 -45.289062 40.375 -44.65625 C 39.238281 -44.03125 38.671875 -43.171875 38.671875 -42.078125 C 38.671875 -40.484375 39.363281 -39.410156 40.75 -38.859375 C 42.132812 -38.316406 45.140625 -37.835938 49.765625 -37.421875 C 55.054688 -36.992188 59.148438 -36.046875 62.046875 -34.578125 C 64.941406 -33.109375 66.957031 -31.363281 68.09375 -29.34375 C 69.226562 -27.332031 69.796875 -25.28125 69.796875 -23.1875 C 69.796875 -19.40625 68.742188 -16.609375 66.640625 -14.796875 C 64.546875 -12.992188 61.503906 -11.835938 57.515625 -11.328125 C 53.523438 -10.828125 48.71875 -10.492188 43.09375 -10.328125 C 41.15625 -10.328125 38.90625 -10.367188 36.34375 -10.453125 C 33.78125 -10.535156 31.195312 -10.703125 28.59375 -10.953125 C 25.988281 -11.210938 23.722656 -11.550781 21.796875 -11.96875 Z M 2.515625 -0.375 C 2.679688 -4.40625 2.972656 -8.5625 3.390625 -12.84375 C 3.816406 -17.132812 4.367188 -21.039062 5.046875 -24.5625 C 6.804688 -24.726562 8.816406 -24.832031 11.078125 -24.875 C 13.347656 -24.914062 15.703125 -24.984375 18.140625 -25.078125 L 18.140625 -9.203125 C 20.910156 -8.359375 24.5625 -7.765625 29.09375 -7.421875 C 33.632812 -7.085938 38.171875 -6.921875 42.703125 -6.921875 C 49.171875 -7.015625 54.671875 -7.414062 59.203125 -8.125 C 63.742188 -8.84375 67.234375 -10.394531 69.671875 -12.78125 C 72.109375 -15.175781 73.328125 -18.894531 73.328125 -23.9375 C 73.328125 -26.539062 72.613281 -28.910156 71.1875 -31.046875 C 69.757812 -33.191406 67.320312 -34.851562 63.875 -36.03125 C 72.1875 -35.101562 78.335938 -33.460938 82.328125 -31.109375 C 86.316406 -28.765625 88.3125 -24.863281 88.3125 -19.40625 C 88.3125 -15.289062 87.597656 -11.820312 86.171875 -9 C 84.742188 -6.1875 82.328125 -3.941406 78.921875 -2.265625 C 75.523438 -0.585938 70.863281 0.625 64.9375 1.375 C 59.019531 2.132812 51.523438 2.515625 42.453125 2.515625 C 35.898438 2.515625 30.25 2.390625 25.5 2.140625 C 20.757812 1.890625 16.582031 1.53125 12.96875 1.0625 C 9.363281 0.601562 5.878906 0.125 2.515625 -0.375 Z M 2.515625 -0.375 "/></g></g></g><g fill="#ff00ff" fill-opacity="1"><g transform="translate(412.477887, 119.311039)"><g><path d="M 48.625 2.515625 C 39.050781 2.515625 31.257812 1.945312 25.25 0.8125 C 19.25 -0.3125 14.585938 -2.175781 11.265625 -4.78125 C 7.953125 -7.382812 5.664062 -10.804688 4.40625 -15.046875 C 3.144531 -19.296875 2.515625 -24.523438 2.515625 -30.734375 C 2.515625 -37.035156 3.207031 -42.453125 4.59375 -46.984375 C 5.976562 -51.523438 8.476562 -55.265625 12.09375 -58.203125 C 15.707031 -61.140625 20.769531 -63.300781 27.28125 -64.6875 C 33.789062 -66.070312 42.125 -66.765625 52.28125 -66.765625 C 60.007812 -66.765625 67.109375 -66.363281 73.578125 -65.5625 C 80.046875 -64.769531 85.210938 -63.660156 89.078125 -62.234375 C 89.078125 -56.523438 88.71875 -50.832031 88 -45.15625 C 87.28125 -39.488281 86.460938 -34.390625 85.546875 -29.859375 C 83.609375 -29.773438 81.585938 -29.671875 79.484375 -29.546875 C 77.390625 -29.421875 75.253906 -29.316406 73.078125 -29.234375 L 73.203125 -54.921875 C 70.429688 -55.847656 67.023438 -56.457031 62.984375 -56.75 C 58.953125 -57.050781 54.335938 -57.203125 49.140625 -57.203125 C 38.972656 -57.203125 31.285156 -55.375 26.078125 -51.71875 C 20.867188 -48.0625 18.265625 -41.53125 18.265625 -32.125 C 18.265625 -25.988281 19.1875 -21.15625 21.03125 -17.625 C 22.882812 -14.101562 26.285156 -11.609375 31.234375 -10.140625 C 36.191406 -8.671875 43.25 -7.9375 52.40625 -7.9375 C 58.875 -7.9375 65.191406 -8.0625 71.359375 -8.3125 C 77.535156 -8.5625 83.394531 -9.191406 88.9375 -10.203125 C 88.769531 -8.523438 88.5625 -6.910156 88.3125 -5.359375 C 88.0625 -3.804688 87.726562 -2.359375 87.3125 -1.015625 C 87.3125 -1.015625 86.050781 -0.71875 83.53125 -0.125 C 81.007812 0.457031 76.910156 1.039062 71.234375 1.625 C 65.566406 2.21875 58.03125 2.515625 48.625 2.515625 Z M 89.328125 -13.359375 C 83.273438 -12.429688 77.179688 -11.820312 71.046875 -11.53125 C 64.921875 -11.238281 58.960938 -11.09375 53.171875 -11.09375 C 44.847656 -11.09375 38.441406 -11.65625 33.953125 -12.78125 C 29.460938 -13.914062 26.332031 -15.992188 24.5625 -19.015625 C 22.800781 -22.046875 21.921875 -26.457031 21.921875 -32.25 C 21.921875 -40.476562 24.164062 -46.125 28.65625 -49.1875 C 33.15625 -52.257812 39.851562 -53.796875 48.75 -53.796875 C 53.457031 -53.796875 57.488281 -53.691406 60.84375 -53.484375 C 64.207031 -53.273438 67.148438 -52.832031 69.671875 -52.15625 L 69.671875 -29.234375 C 63.703125 -29.054688 58.492188 -29.179688 54.046875 -29.609375 L 54.046875 -43.34375 C 53.117188 -43.59375 52.210938 -43.757812 51.328125 -43.84375 C 50.453125 -43.925781 49.550781 -43.96875 48.625 -43.96875 C 45.601562 -43.96875 43.359375 -43.210938 41.890625 -41.703125 C 40.421875 -40.191406 39.6875 -37.335938 39.6875 -33.140625 C 39.6875 -28.347656 40.710938 -25.238281 42.765625 -23.8125 C 44.828125 -22.382812 48.421875 -21.671875 53.546875 -21.671875 C 60.265625 -21.671875 66.726562 -21.859375 72.9375 -22.234375 C 79.15625 -22.609375 84.703125 -23.050781 89.578125 -23.5625 C 89.660156 -21.96875 89.679688 -20.304688 89.640625 -18.578125 C 89.597656 -16.859375 89.492188 -15.117188 89.328125 -13.359375 Z M 89.328125 -13.359375 "/></g></g></g><g fill="#ff00ff" fill-opacity="1"><g transform="translate(503.559779, 119.311039)"><g><path d="M 99.78125 -54.671875 L 51.03125 -54.671875 C 51.445312 -58.367188 51.945312 -61.5625 52.53125 -64.25 C 55.46875 -64.414062 59.035156 -64.5625 63.234375 -64.6875 C 67.441406 -64.8125 71.832031 -64.875 76.40625 -64.875 C 80.988281 -64.875 85.378906 -64.8125 89.578125 -64.6875 C 93.773438 -64.5625 97.300781 -64.414062 100.15625 -64.25 C 100.15625 -61.144531 100.03125 -57.953125 99.78125 -54.671875 Z M 38.171875 -15.75 L 24.3125 -54.671875 L 1.765625 -54.671875 C 1.929688 -56.441406 2.160156 -58.144531 2.453125 -59.78125 C 2.742188 -61.414062 3.0625 -62.90625 3.40625 -64.25 C 6.84375 -64.5 10.578125 -64.644531 14.609375 -64.6875 C 18.640625 -64.726562 22.691406 -64.726562 26.765625 -64.6875 C 30.835938 -64.644531 34.554688 -64.5 37.921875 -64.25 L 51.40625 -22.546875 L 52.78125 -22.546875 L 59.71875 -42.453125 L 50.140625 -42.453125 C 50.222656 -43.960938 50.304688 -45.453125 50.390625 -46.921875 C 50.472656 -48.398438 50.554688 -49.851562 50.640625 -51.28125 L 77.234375 -51.28125 L 65.390625 -15.75 Z M 9.828125 13.484375 C 10.078125 11.546875 10.390625 9.609375 10.765625 7.671875 C 11.148438 5.742188 11.632812 3.859375 12.21875 2.015625 C 15.414062 2.429688 18.25 2.722656 20.71875 2.890625 C 23.195312 3.066406 25.738281 3.15625 28.34375 3.15625 L 29.234375 3.15625 C 33.429688 3.15625 36.640625 3.003906 38.859375 2.703125 C 41.085938 2.410156 42.707031 1.78125 43.71875 0.8125 C 44.726562 -0.144531 45.523438 -1.675781 46.109375 -3.78125 C 41.410156 -3.695312 36.9375 -3.675781 32.6875 -3.71875 C 28.445312 -3.757812 24.691406 -4.113281 21.421875 -4.78125 L 6.921875 -42.453125 L 1.265625 -42.453125 C 1.265625 -43.878906 1.285156 -45.328125 1.328125 -46.796875 C 1.367188 -48.273438 1.429688 -49.769531 1.515625 -51.28125 L 21.421875 -51.28125 L 35.53125 -12.59375 L 64.375 -12.59375 C 62.363281 -6.882812 60.390625 -2.226562 58.453125 1.375 C 56.523438 4.988281 54.445312 7.800781 52.21875 9.8125 C 49.988281 11.832031 47.425781 13.222656 44.53125 13.984375 C 41.632812 14.742188 38.253906 15.125 34.390625 15.125 C 30.523438 15.125 26.300781 14.972656 21.71875 14.671875 C 17.144531 14.378906 13.179688 13.984375 9.828125 13.484375 Z M 8.8125 27.34375 C 8.8125 25.65625 8.875 23.972656 9 22.296875 C 9.132812 20.617188 9.242188 18.941406 9.328125 17.265625 C 12.765625 17.597656 16.6875 17.910156 21.09375 18.203125 C 25.507812 18.492188 29.898438 18.640625 34.265625 18.640625 C 38.460938 18.640625 42.15625 18.238281 45.34375 17.4375 C 48.539062 16.644531 51.421875 15.21875 53.984375 13.15625 C 56.546875 11.101562 58.914062 8.125 61.09375 4.21875 C 63.28125 0.3125 65.425781 -4.703125 67.53125 -10.828125 L 81.390625 -51.28125 L 99.53125 -51.28125 C 99.101562 -48 98.640625 -45.054688 98.140625 -42.453125 L 92.46875 -42.453125 L 81.140625 -9.703125 C 78.359375 -1.722656 75.644531 4.785156 73 9.828125 C 70.363281 14.867188 67.363281 18.773438 64 21.546875 C 60.632812 24.316406 56.597656 26.222656 51.890625 27.265625 C 47.191406 28.316406 41.441406 28.84375 34.640625 28.84375 C 29.691406 28.84375 24.882812 28.675781 20.21875 28.34375 C 15.5625 28.007812 11.757812 27.675781 8.8125 27.34375 Z M 8.8125 27.34375 "/></g></g></g><g fill="#ff00ff" fill-opacity="1"><g transform="translate(604.342007, 119.311039)"><g><path d="M 3.28125 -54.671875 C 3.445312 -56.179688 3.632812 -57.671875 3.84375 -59.140625 C 4.050781 -60.617188 4.320312 -62.03125 4.65625 -63.375 C 6.082031 -63.457031 7.46875 -63.5 8.8125 -63.5 C 10.15625 -63.5 11.5 -63.5 12.84375 -63.5 C 12.675781 -70.71875 13.707031 -76.300781 15.9375 -80.25 C 18.164062 -84.195312 22.007812 -86.925781 27.46875 -88.4375 C 32.925781 -89.945312 40.316406 -90.703125 49.640625 -90.703125 C 52.992188 -90.703125 56.179688 -90.660156 59.203125 -90.578125 C 62.234375 -90.492188 64.84375 -90.285156 67.03125 -89.953125 C 67.03125 -88.609375 67.03125 -87.242188 67.03125 -85.859375 C 67.03125 -84.472656 66.941406 -83.066406 66.765625 -81.640625 C 56.859375 -82.566406 49.238281 -82.628906 43.90625 -81.828125 C 38.570312 -81.023438 34.894531 -79.28125 32.875 -76.59375 C 30.863281 -73.90625 29.859375 -70.128906 29.859375 -65.265625 L 29.859375 -54.671875 Z M 64.375 -54.671875 L 33.390625 -54.671875 L 33.390625 -64.375 C 33.390625 -69.164062 34.289062 -72.710938 36.09375 -75.015625 C 37.894531 -77.328125 41.191406 -78.691406 45.984375 -79.109375 C 50.773438 -79.535156 57.617188 -79.367188 66.515625 -78.609375 C 66.429688 -77.097656 66.265625 -75.566406 66.015625 -74.015625 C 65.765625 -72.460938 65.472656 -70.972656 65.140625 -69.546875 C 63.796875 -69.710938 62.578125 -69.796875 61.484375 -69.796875 C 60.390625 -69.796875 59.128906 -69.796875 57.703125 -69.796875 C 54.421875 -69.796875 52.234375 -69.207031 51.140625 -68.03125 C 50.054688 -66.851562 49.679688 -65.300781 50.015625 -63.375 L 64.5 -63 C 64.5 -61.5625 64.5 -60.148438 64.5 -58.765625 C 64.5 -57.378906 64.457031 -56.015625 64.375 -54.671875 Z M 4.28125 -11.71875 C 4.445312 -13.394531 4.632812 -15.070312 4.84375 -16.75 C 5.0625 -18.4375 5.335938 -20.117188 5.671875 -21.796875 L 13.109375 -21.796875 L 13.109375 -42.078125 C 11.421875 -42.160156 9.695312 -42.203125 7.9375 -42.203125 C 6.175781 -42.203125 4.453125 -42.242188 2.765625 -42.328125 C 2.765625 -43.835938 2.785156 -45.347656 2.828125 -46.859375 C 2.867188 -48.378906 2.9375 -49.851562 3.03125 -51.28125 L 29.859375 -51.28125 L 29.859375 -11.71875 Z M 62.734375 -11.71875 L 33.390625 -11.71875 L 33.390625 -51.28125 L 64 -51.28125 C 63.914062 -49.769531 63.769531 -48.273438 63.5625 -46.796875 C 63.351562 -45.328125 63.078125 -43.835938 62.734375 -42.328125 C 60.640625 -42.242188 58.539062 -42.179688 56.4375 -42.140625 C 54.34375 -42.097656 52.242188 -42.078125 50.140625 -42.078125 L 50.140625 -21.796875 L 63.125 -21.796875 C 63.125 -18.347656 62.992188 -14.988281 62.734375 -11.71875 Z M 3.53125 0 C 3.613281 -1.425781 3.695312 -2.875 3.78125 -4.34375 C 3.863281 -5.8125 3.945312 -7.21875 4.03125 -8.5625 L 62.484375 -8.5625 C 62.066406 -5.539062 61.5625 -2.6875 60.96875 0 C 57.113281 0.164062 52.6875 0.289062 47.6875 0.375 C 42.6875 0.457031 37.539062 0.5 32.25 0.5 C 26.957031 0.5 21.832031 0.457031 16.875 0.375 C 11.925781 0.289062 7.476562 0.164062 3.53125 0 Z M 3.53125 0 "/></g></g></g><g fill="#ff00ff" fill-opacity="1"><g transform="translate(671.23614, 119.311039)"><g><path d="M 52.78125 -82.640625 L 12.34375 -82.640625 C 12.507812 -84.066406 12.738281 -85.453125 13.03125 -86.796875 C 13.332031 -88.140625 13.691406 -89.441406 14.109375 -90.703125 C 20.578125 -91.210938 27 -91.445312 33.375 -91.40625 C 39.757812 -91.363281 46.398438 -91.128906 53.296875 -90.703125 C 53.296875 -89.617188 53.253906 -88.359375 53.171875 -86.921875 C 53.085938 -85.492188 52.957031 -84.066406 52.78125 -82.640625 Z M 11.59375 -70.671875 C 11.59375 -73.703125 11.71875 -76.601562 11.96875 -79.375 L 52.40625 -79.375 C 52.238281 -77.769531 52.007812 -76.210938 51.71875 -74.703125 C 51.425781 -73.191406 51.109375 -71.847656 50.765625 -70.671875 C 38.585938 -70.253906 25.53125 -70.253906 11.59375 -70.671875 Z M 57.453125 -11.71875 L 33.390625 -11.71875 L 33.390625 -54.671875 L 3.40625 -54.671875 C 3.738281 -57.953125 4.238281 -61.144531 4.90625 -64.25 C 12.382812 -64.582031 20.175781 -64.75 28.28125 -64.75 C 36.382812 -64.75 44.132812 -64.582031 51.53125 -64.25 L 50.140625 -42.453125 L 50.140625 -21.796875 L 57.828125 -21.796875 C 57.828125 -18.347656 57.703125 -14.988281 57.453125 -11.71875 Z M 4.40625 -11.71875 C 4.570312 -13.394531 4.757812 -15.070312 4.96875 -16.75 C 5.1875 -18.4375 5.460938 -20.117188 5.796875 -21.796875 L 13.109375 -21.796875 L 13.109375 -41.953125 C 11.335938 -42.035156 9.570312 -42.117188 7.8125 -42.203125 C 6.050781 -42.285156 4.328125 -42.367188 2.640625 -42.453125 C 2.722656 -44.046875 2.804688 -45.578125 2.890625 -47.046875 C 2.984375 -48.523438 3.070312 -49.9375 3.15625 -51.28125 L 29.859375 -51.28125 L 29.859375 -11.71875 Z M 3.65625 0 C 3.738281 -1.425781 3.820312 -2.875 3.90625 -4.34375 C 3.988281 -5.8125 4.070312 -7.21875 4.15625 -8.5625 L 57.203125 -8.5625 C 57.023438 -7.050781 56.8125 -5.601562 56.5625 -4.21875 C 56.3125 -2.832031 56.0625 -1.425781 55.8125 0 C 52.53125 0.164062 48.535156 0.289062 43.828125 0.375 C 39.128906 0.457031 34.238281 0.5 29.15625 0.5 C 24.082031 0.5 19.296875 0.457031 14.796875 0.375 C 10.304688 0.289062 6.59375 0.164062 3.65625 0 Z M 3.65625 0 "/></g></g></g><g fill="#ff00ff" fill-opacity="1"><g transform="translate(730.445694, 119.311039)"><g><path d="M 108.71875 -11.71875 L 83.40625 -11.71875 C 83.820312 -14.320312 84.195312 -17.785156 84.53125 -22.109375 C 84.875 -26.429688 85.046875 -31.953125 85.046875 -38.671875 C 85.046875 -42.285156 84.582031 -45.3125 83.65625 -47.75 C 82.726562 -50.1875 80.941406 -52.035156 78.296875 -53.296875 C 75.648438 -54.554688 71.722656 -55.1875 66.515625 -55.1875 C 63.410156 -55.1875 60.257812 -55.015625 57.0625 -54.671875 C 53.875 -54.335938 51.0625 -53.707031 48.625 -52.78125 C 50.726562 -56.894531 53.0625 -59.9375 55.625 -61.90625 C 58.1875 -63.882812 61.125 -65.1875 64.4375 -65.8125 C 67.757812 -66.445312 71.601562 -66.765625 75.96875 -66.765625 C 81.757812 -66.765625 86.585938 -66.34375 90.453125 -65.5 C 94.316406 -64.664062 97.273438 -62.882812 99.328125 -60.15625 C 101.390625 -57.425781 102.503906 -53.207031 102.671875 -47.5 L 102.796875 -43.71875 C 102.878906 -39.851562 102.691406 -35.90625 102.234375 -31.875 C 101.773438 -27.84375 101.289062 -24.484375 100.78125 -21.796875 L 109.234375 -21.796875 C 109.234375 -20.117188 109.1875 -18.4375 109.09375 -16.75 C 109.007812 -15.070312 108.882812 -13.394531 108.71875 -11.71875 Z M 63 0 C 63.414062 -3.269531 63.769531 -7.023438 64.0625 -11.265625 C 64.351562 -15.515625 64.582031 -19.109375 64.75 -22.046875 L 64.5 -32.375 C 64.414062 -35.90625 63.722656 -38.128906 62.421875 -39.046875 C 61.117188 -39.972656 59.125 -40.4375 56.4375 -40.4375 C 54.257812 -40.4375 51.953125 -40.1875 49.515625 -39.6875 L 49.515625 -21.796875 L 57.578125 -21.796875 C 57.578125 -18.265625 57.453125 -14.738281 57.203125 -11.21875 L 57.203125 -11.71875 L 32.75 -11.71875 L 32.75 -54.671875 L 3.28125 -54.671875 C 3.695312 -57.953125 4.238281 -61.144531 4.90625 -64.25 C 8.601562 -64.5 12.613281 -64.644531 16.9375 -64.6875 C 21.269531 -64.726562 25.617188 -64.726562 29.984375 -64.6875 C 34.347656 -64.644531 38.335938 -64.5 41.953125 -64.25 L 46.609375 -49.140625 L 46.859375 -49.140625 C 49.640625 -50.140625 52.644531 -50.847656 55.875 -51.265625 C 59.101562 -51.691406 62.273438 -51.90625 65.390625 -51.90625 C 70.085938 -51.90625 73.59375 -51.335938 75.90625 -50.203125 C 78.21875 -49.066406 79.726562 -47.40625 80.4375 -45.21875 C 81.15625 -43.039062 81.515625 -40.441406 81.515625 -37.421875 C 81.515625 -30.535156 81.300781 -24.90625 80.875 -20.53125 C 80.457031 -16.164062 80 -12.175781 79.5 -8.5625 L 108.46875 -8.5625 C 108.300781 -7.050781 108.070312 -5.582031 107.78125 -4.15625 C 107.488281 -2.726562 107.171875 -1.34375 106.828125 0 C 104.140625 0.25 100.90625 0.414062 97.125 0.5 C 93.351562 0.582031 89.363281 0.625 85.15625 0.625 C 80.957031 0.625 76.925781 0.5625 73.0625 0.4375 C 69.207031 0.3125 65.851562 0.164062 63 0 Z M 4.65625 -11.71875 C 4.820312 -13.394531 5.007812 -15.070312 5.21875 -16.75 C 5.4375 -18.4375 5.710938 -20.117188 6.046875 -21.796875 L 12.46875 -21.796875 L 12.46875 -42.453125 L 2.640625 -42.453125 L 3.03125 -51.28125 L 29.234375 -51.28125 L 29.234375 -11.71875 Z M 3.90625 0 C 3.988281 -1.425781 4.070312 -2.875 4.15625 -4.34375 C 4.238281 -5.8125 4.320312 -7.21875 4.40625 -8.5625 L 56.9375 -8.5625 C 56.769531 -7.050781 56.5625 -5.601562 56.3125 -4.21875 C 56.0625 -2.832031 55.8125 -1.425781 55.5625 0 C 52.28125 0.164062 48.375 0.289062 43.84375 0.375 C 39.3125 0.457031 34.609375 0.5 29.734375 0.5 C 24.859375 0.5 20.148438 0.457031 15.609375 0.375 C 11.078125 0.289062 7.175781 0.164062 3.90625 0 Z M 3.90625 0 "/></g></g></g><g fill="#00ffff" fill-opacity="1"><g transform="translate(-0.918287, 119.311039)"><g><path d="M 75.84375 -12.96875 L 52.28125 -74.328125 L 2.890625 -74.328125 C 3.066406 -75.753906 3.257812 -77.160156 3.46875 -78.546875 C 3.675781 -79.929688 3.90625 -81.296875 4.15625 -82.640625 C 7.09375 -82.804688 10.679688 -82.910156 14.921875 -82.953125 C 19.171875 -83.003906 23.75 -83.050781 28.65625 -83.09375 C 33.570312 -83.132812 38.460938 -83.132812 43.328125 -83.09375 C 48.203125 -83.050781 52.78125 -83.003906 57.0625 -82.953125 C 61.351562 -82.910156 64.925781 -82.804688 67.78125 -82.640625 L 80.875 -46.734375 L 95.25 -82.640625 C 98.851562 -82.804688 103.257812 -82.929688 108.46875 -83.015625 C 113.675781 -83.109375 119.132812 -83.15625 124.84375 -83.15625 C 130.5625 -83.15625 136.023438 -83.109375 141.234375 -83.015625 C 146.441406 -82.929688 150.847656 -82.804688 154.453125 -82.640625 C 154.453125 -81.296875 154.453125 -79.929688 154.453125 -78.546875 C 154.453125 -77.160156 154.410156 -75.753906 154.328125 -74.328125 L 104.4375 -74.328125 L 78.484375 -12.96875 Z M 59.71875 -1.265625 L 41.828125 -48.375 L 40.6875 -48.375 L 40.6875 -23.0625 L 47.75 -23.0625 C 47.75 -21.457031 47.75 -19.816406 47.75 -18.140625 C 47.75 -16.460938 47.664062 -14.785156 47.5 -13.109375 L 28.09375 -13.109375 L 28.09375 -71.1875 L 49.765625 -71.1875 L 73.703125 -9.828125 L 80.5 -9.828125 L 106.703125 -71.1875 L 126.109375 -71.1875 L 126.109375 -13.109375 L 101.546875 -13.109375 C 101.710938 -14.785156 101.898438 -16.460938 102.109375 -18.140625 C 102.316406 -19.816406 102.546875 -21.457031 102.796875 -23.0625 L 108.96875 -23.0625 L 108.96875 -48.5 L 107.84375 -48.5 L 89.578125 -1.265625 C 87.554688 -1.097656 85.117188 -0.96875 82.265625 -0.875 C 79.410156 -0.789062 76.492188 -0.75 73.515625 -0.75 C 70.535156 -0.75 67.804688 -0.789062 65.328125 -0.875 C 62.847656 -0.96875 60.976562 -1.097656 59.71875 -1.265625 Z M 2.765625 -13.109375 C 2.941406 -14.785156 3.132812 -16.460938 3.34375 -18.140625 C 3.550781 -19.816406 3.78125 -21.457031 4.03125 -23.0625 L 11.71875 -23.0625 L 11.71875 -59.59375 L 2.015625 -59.59375 C 2.097656 -61.4375 2.179688 -63.320312 2.265625 -65.25 C 2.347656 -67.1875 2.472656 -69.078125 2.640625 -70.921875 L 24.5625 -70.921875 L 24.5625 -13.109375 Z M 154.328125 -13.109375 L 129.640625 -13.109375 L 129.640625 -70.921875 L 154.078125 -70.921875 C 153.910156 -68.910156 153.703125 -66.9375 153.453125 -65 C 153.203125 -63.070312 152.863281 -61.269531 152.4375 -59.59375 L 146.015625 -59.59375 L 146.015625 -23.0625 L 154.578125 -23.0625 C 154.578125 -21.457031 154.578125 -19.816406 154.578125 -18.140625 C 154.578125 -16.460938 154.492188 -14.785156 154.328125 -13.109375 Z M 2.015625 0 C 2.015625 -1.59375 2.054688 -3.226562 2.140625 -4.90625 C 2.222656 -6.59375 2.304688 -8.234375 2.390625 -9.828125 L 47.375 -9.828125 C 47.207031 -8.066406 47.015625 -6.34375 46.796875 -4.65625 C 46.585938 -2.976562 46.316406 -1.425781 45.984375 0 C 41.617188 0.25 36.769531 0.414062 31.4375 0.5 C 26.101562 0.582031 20.851562 0.582031 15.6875 0.5 C 10.519531 0.414062 5.960938 0.25 2.015625 0 Z M 100.65625 0 C 100.738281 -1.59375 100.84375 -3.207031 100.96875 -4.84375 C 101.101562 -6.488281 101.210938 -8.148438 101.296875 -9.828125 L 153.953125 -9.828125 C 153.867188 -8.066406 153.703125 -6.34375 153.453125 -4.65625 C 153.203125 -2.976562 152.90625 -1.425781 152.5625 0 C 149.289062 0.164062 145.320312 0.289062 140.65625 0.375 C 136 0.457031 131.148438 0.5 126.109375 0.5 C 121.066406 0.5 116.300781 0.457031 111.8125 0.375 C 107.320312 0.289062 103.601562 0.164062 100.65625 0 Z M 100.65625 0 "/></g></g></g><g fill="#00ffff" fill-opacity="1"><g transform="translate(154.412246, 119.311039)"><g><path d="M 99.78125 -54.671875 L 51.03125 -54.671875 C 51.445312 -58.367188 51.945312 -61.5625 52.53125 -64.25 C 55.46875 -64.414062 59.035156 -64.5625 63.234375 -64.6875 C 67.441406 -64.8125 71.832031 -64.875 76.40625 -64.875 C 80.988281 -64.875 85.378906 -64.8125 89.578125 -64.6875 C 93.773438 -64.5625 97.300781 -64.414062 100.15625 -64.25 C 100.15625 -61.144531 100.03125 -57.953125 99.78125 -54.671875 Z M 38.171875 -15.75 L 24.3125 -54.671875 L 1.765625 -54.671875 C 1.929688 -56.441406 2.160156 -58.144531 2.453125 -59.78125 C 2.742188 -61.414062 3.0625 -62.90625 3.40625 -64.25 C 6.84375 -64.5 10.578125 -64.644531 14.609375 -64.6875 C 18.640625 -64.726562 22.691406 -64.726562 26.765625 -64.6875 C 30.835938 -64.644531 34.554688 -64.5 37.921875 -64.25 L 51.40625 -22.546875 L 52.78125 -22.546875 L 59.71875 -42.453125 L 50.140625 -42.453125 C 50.222656 -43.960938 50.304688 -45.453125 50.390625 -46.921875 C 50.472656 -48.398438 50.554688 -49.851562 50.640625 -51.28125 L 77.234375 -51.28125 L 65.390625 -15.75 Z M 9.828125 13.484375 C 10.078125 11.546875 10.390625 9.609375 10.765625 7.671875 C 11.148438 5.742188 11.632812 3.859375 12.21875 2.015625 C 15.414062 2.429688 18.25 2.722656 20.71875 2.890625 C 23.195312 3.066406 25.738281 3.15625 28.34375 3.15625 L 29.234375 3.15625 C 33.429688 3.15625 36.640625 3.003906 38.859375 2.703125 C 41.085938 2.410156 42.707031 1.78125 43.71875 0.8125 C 44.726562 -0.144531 45.523438 -1.675781 46.109375 -3.78125 C 41.410156 -3.695312 36.9375 -3.675781 32.6875 -3.71875 C 28.445312 -3.757812 24.691406 -4.113281 21.421875 -4.78125 L 6.921875 -42.453125 L 1.265625 -42.453125 C 1.265625 -43.878906 1.285156 -45.328125 1.328125 -46.796875 C 1.367188 -48.273438 1.429688 -49.769531 1.515625 -51.28125 L 21.421875 -51.28125 L 35.53125 -12.59375 L 64.375 -12.59375 C 62.363281 -6.882812 60.390625 -2.226562 58.453125 1.375 C 56.523438 4.988281 54.445312 7.800781 52.21875 9.8125 C 49.988281 11.832031 47.425781 13.222656 44.53125 13.984375 C 41.632812 14.742188 38.253906 15.125 34.390625 15.125 C 30.523438 15.125 26.300781 14.972656 21.71875 14.671875 C 17.144531 14.378906 13.179688 13.984375 9.828125 13.484375 Z M 8.8125 27.34375 C 8.8125 25.65625 8.875 23.972656 9 22.296875 C 9.132812 20.617188 9.242188 18.941406 9.328125 17.265625 C 12.765625 17.597656 16.6875 17.910156 21.09375 18.203125 C 25.507812 18.492188 29.898438 18.640625 34.265625 18.640625 C 38.460938 18.640625 42.15625 18.238281 45.34375 17.4375 C 48.539062 16.644531 51.421875 15.21875 53.984375 13.15625 C 56.546875 11.101562 58.914062 8.125 61.09375 4.21875 C 63.28125 0.3125 65.425781 -4.703125 67.53125 -10.828125 L 81.390625 -51.28125 L 99.53125 -51.28125 C 99.101562 -48 98.640625 -45.054688 98.140625 -42.453125 L 92.46875 -42.453125 L 81.140625 -9.703125 C 78.359375 -1.722656 75.644531 4.785156 73 9.828125 C 70.363281 14.867188 67.363281 18.773438 64 21.546875 C 60.632812 24.316406 56.597656 26.222656 51.890625 27.265625 C 47.191406 28.316406 41.441406 28.84375 34.640625 28.84375 C 29.691406 28.84375 24.882812 28.675781 20.21875 28.34375 C 15.5625 28.007812 11.757812 27.675781 8.8125 27.34375 Z M 8.8125 27.34375 "/></g></g></g><g fill="#00ffff" fill-opacity="1"><g transform="translate(255.194443, 119.311039)"><g><path d="M 58.578125 -35.65625 L 4.40625 -35.65625 C 4.40625 -37.5 4.46875 -39.21875 4.59375 -40.8125 C 4.71875 -42.414062 4.820312 -43.757812 4.90625 -44.84375 L 58.578125 -44.84375 C 58.578125 -43.925781 58.597656 -42.644531 58.640625 -41 C 58.679688 -39.363281 58.660156 -37.582031 58.578125 -35.65625 Z M 4.28125 -32.125 L 58.578125 -32.125 C 58.492188 -30.28125 58.390625 -28.535156 58.265625 -26.890625 C 58.140625 -25.253906 57.992188 -23.890625 57.828125 -22.796875 L 4.40625 -22.796875 C 4.320312 -23.972656 4.28125 -25.378906 4.28125 -27.015625 C 4.28125 -28.660156 4.28125 -30.363281 4.28125 -32.125 Z M 4.28125 -32.125 "/></g></g></g><g fill="#00ffff" fill-opacity="1"><g transform="translate(318.183319, 119.311039)"><g><path d="M 27.09375 -27.84375 C 21.457031 -28.425781 16.832031 -29.265625 13.21875 -30.359375 C 9.613281 -31.453125 6.96875 -33.148438 5.28125 -35.453125 C 3.601562 -37.765625 2.765625 -41.109375 2.765625 -45.484375 C 2.765625 -49.265625 3.375 -52.5 4.59375 -55.1875 C 5.8125 -57.875 7.992188 -60.078125 11.140625 -61.796875 C 14.296875 -63.515625 18.707031 -64.769531 24.375 -65.5625 C 30.039062 -66.363281 37.285156 -66.765625 46.109375 -66.765625 C 56.015625 -66.765625 64.179688 -66.445312 70.609375 -65.8125 C 77.035156 -65.1875 82.304688 -64.414062 86.421875 -63.5 C 86.421875 -61.476562 86.316406 -58.976562 86.109375 -56 C 85.898438 -53.019531 85.625 -50.035156 85.28125 -47.046875 C 84.945312 -44.066406 84.488281 -41.445312 83.90625 -39.1875 C 81.882812 -39.007812 79.78125 -38.878906 77.59375 -38.796875 C 75.414062 -38.710938 73.238281 -38.671875 71.0625 -38.671875 L 71.0625 -55.1875 C 67.695312 -56.101562 63.851562 -56.726562 59.53125 -57.0625 C 55.207031 -57.40625 50.773438 -57.578125 46.234375 -57.578125 C 36.578125 -57.492188 29.375 -56.234375 24.625 -53.796875 C 19.882812 -51.359375 17.515625 -47.160156 17.515625 -41.203125 C 17.515625 -37.585938 18.375 -34.6875 20.09375 -32.5 C 21.8125 -30.320312 24.144531 -28.769531 27.09375 -27.84375 Z M 21.796875 -11.96875 L 21.796875 -25.078125 C 24.484375 -24.984375 26.851562 -24.9375 28.90625 -24.9375 C 30.96875 -24.9375 33.300781 -24.8125 35.90625 -24.5625 L 35.90625 -18.140625 C 37.082031 -17.972656 38.320312 -17.847656 39.625 -17.765625 C 40.925781 -17.679688 42.289062 -17.640625 43.71875 -17.640625 C 46.65625 -17.640625 48.921875 -17.890625 50.515625 -18.390625 C 52.109375 -18.898438 52.90625 -20.035156 52.90625 -21.796875 C 52.90625 -22.804688 52.503906 -23.601562 51.703125 -24.1875 C 50.910156 -24.78125 49.398438 -25.285156 47.171875 -25.703125 C 44.953125 -26.117188 41.703125 -26.582031 37.421875 -27.09375 C 31.285156 -27.84375 27 -29.539062 24.5625 -32.1875 C 22.125 -34.832031 20.90625 -37.960938 20.90625 -41.578125 C 20.90625 -45.941406 22.773438 -49.109375 26.515625 -51.078125 C 30.253906 -53.054688 36.703125 -54.085938 45.859375 -54.171875 C 48.710938 -54.171875 52.195312 -54.109375 56.3125 -53.984375 C 60.425781 -53.859375 64.125 -53.414062 67.40625 -52.65625 L 67.40625 -38.671875 C 65.050781 -38.671875 62.757812 -38.734375 60.53125 -38.859375 C 58.3125 -38.992188 56.191406 -39.101562 54.171875 -39.1875 L 54.171875 -45.109375 C 52.992188 -45.273438 51.734375 -45.398438 50.390625 -45.484375 C 49.046875 -45.566406 47.957031 -45.609375 47.125 -45.609375 C 43.757812 -45.609375 41.507812 -45.289062 40.375 -44.65625 C 39.238281 -44.03125 38.671875 -43.171875 38.671875 -42.078125 C 38.671875 -40.484375 39.363281 -39.410156 40.75 -38.859375 C 42.132812 -38.316406 45.140625 -37.835938 49.765625 -37.421875 C 55.054688 -36.992188 59.148438 -36.046875 62.046875 -34.578125 C 64.941406 -33.109375 66.957031 -31.363281 68.09375 -29.34375 C 69.226562 -27.332031 69.796875 -25.28125 69.796875 -23.1875 C 69.796875 -19.40625 68.742188 -16.609375 66.640625 -14.796875 C 64.546875 -12.992188 61.503906 -11.835938 57.515625 -11.328125 C 53.523438 -10.828125 48.71875 -10.492188 43.09375 -10.328125 C 41.15625 -10.328125 38.90625 -10.367188 36.34375 -10.453125 C 33.78125 -10.535156 31.195312 -10.703125 28.59375 -10.953125 C 25.988281 -11.210938 23.722656 -11.550781 21.796875 -11.96875 Z M 2.515625 -0.375 C 2.679688 -4.40625 2.972656 -8.5625 3.390625 -12.84375 C 3.816406 -17.132812 4.367188 -21.039062 5.046875 -24.5625 C 6.804688 -24.726562 8.816406 -24.832031 11.078125 -24.875 C 13.347656 -24.914062 15.703125 -24.984375 18.140625 -25.078125 L 18.140625 -9.203125 C 20.910156 -8.359375 24.5625 -7.765625 29.09375 -7.421875 C 33.632812 -7.085938 38.171875 -6.921875 42.703125 -6.921875 C 49.171875 -7.015625 54.671875 -7.414062 59.203125 -8.125 C 63.742188 -8.84375 67.234375 -10.394531 69.671875 -12.78125 C 72.109375 -15.175781 73.328125 -18.894531 73.328125 -23.9375 C 73.328125 -26.539062 72.613281 -28.910156 71.1875 -31.046875 C 69.757812 -33.191406 67.320312 -34.851562 63.875 -36.03125 C 72.1875 -35.101562 78.335938 -33.460938 82.328125 -31.109375 C 86.316406 -28.765625 88.3125 -24.863281 88.3125 -19.40625 C 88.3125 -15.289062 87.597656 -11.820312 86.171875 -9 C 84.742188 -6.1875 82.328125 -3.941406 78.921875 -2.265625 C 75.523438 -0.585938 70.863281 0.625 64.9375 1.375 C 59.019531 2.132812 51.523438 2.515625 42.453125 2.515625 C 35.898438 2.515625 30.25 2.390625 25.5 2.140625 C 20.757812 1.890625 16.582031 1.53125 12.96875 1.0625 C 9.363281 0.601562 5.878906 0.125 2.515625 -0.375 Z M 2.515625 -0.375 "/></g></g></g><g fill="#00ffff" fill-opacity="1"><g transform="translate(407.753513, 119.311039)"><g><path d="M 48.625 2.515625 C 39.050781 2.515625 31.257812 1.945312 25.25 0.8125 C 19.25 -0.3125 14.585938 -2.175781 11.265625 -4.78125 C 7.953125 -7.382812 5.664062 -10.804688 4.40625 -15.046875 C 3.144531 -19.296875 2.515625 -24.523438 2.515625 -30.734375 C 2.515625 -37.035156 3.207031 -42.453125 4.59375 -46.984375 C 5.976562 -51.523438 8.476562 -55.265625 12.09375 -58.203125 C 15.707031 -61.140625 20.769531 -63.300781 27.28125 -64.6875 C 33.789062 -66.070312 42.125 -66.765625 52.28125 -66.765625 C 60.007812 -66.765625 67.109375 -66.363281 73.578125 -65.5625 C 80.046875 -64.769531 85.210938 -63.660156 89.078125 -62.234375 C 89.078125 -56.523438 88.71875 -50.832031 88 -45.15625 C 87.28125 -39.488281 86.460938 -34.390625 85.546875 -29.859375 C 83.609375 -29.773438 81.585938 -29.671875 79.484375 -29.546875 C 77.390625 -29.421875 75.253906 -29.316406 73.078125 -29.234375 L 73.203125 -54.921875 C 70.429688 -55.847656 67.023438 -56.457031 62.984375 -56.75 C 58.953125 -57.050781 54.335938 -57.203125 49.140625 -57.203125 C 38.972656 -57.203125 31.285156 -55.375 26.078125 -51.71875 C 20.867188 -48.0625 18.265625 -41.53125 18.265625 -32.125 C 18.265625 -25.988281 19.1875 -21.15625 21.03125 -17.625 C 22.882812 -14.101562 26.285156 -11.609375 31.234375 -10.140625 C 36.191406 -8.671875 43.25 -7.9375 52.40625 -7.9375 C 58.875 -7.9375 65.191406 -8.0625 71.359375 -8.3125 C 77.535156 -8.5625 83.394531 -9.191406 88.9375 -10.203125 C 88.769531 -8.523438 88.5625 -6.910156 88.3125 -5.359375 C 88.0625 -3.804688 87.726562 -2.359375 87.3125 -1.015625 C 87.3125 -1.015625 86.050781 -0.71875 83.53125 -0.125 C 81.007812 0.457031 76.910156 1.039062 71.234375 1.625 C 65.566406 2.21875 58.03125 2.515625 48.625 2.515625 Z M 89.328125 -13.359375 C 83.273438 -12.429688 77.179688 -11.820312 71.046875 -11.53125 C 64.921875 -11.238281 58.960938 -11.09375 53.171875 -11.09375 C 44.847656 -11.09375 38.441406 -11.65625 33.953125 -12.78125 C 29.460938 -13.914062 26.332031 -15.992188 24.5625 -19.015625 C 22.800781 -22.046875 21.921875 -26.457031 21.921875 -32.25 C 21.921875 -40.476562 24.164062 -46.125 28.65625 -49.1875 C 33.15625 -52.257812 39.851562 -53.796875 48.75 -53.796875 C 53.457031 -53.796875 57.488281 -53.691406 60.84375 -53.484375 C 64.207031 -53.273438 67.148438 -52.832031 69.671875 -52.15625 L 69.671875 -29.234375 C 63.703125 -29.054688 58.492188 -29.179688 54.046875 -29.609375 L 54.046875 -43.34375 C 53.117188 -43.59375 52.210938 -43.757812 51.328125 -43.84375 C 50.453125 -43.925781 49.550781 -43.96875 48.625 -43.96875 C 45.601562 -43.96875 43.359375 -43.210938 41.890625 -41.703125 C 40.421875 -40.191406 39.6875 -37.335938 39.6875 -33.140625 C 39.6875 -28.347656 40.710938 -25.238281 42.765625 -23.8125 C 44.828125 -22.382812 48.421875 -21.671875 53.546875 -21.671875 C 60.265625 -21.671875 66.726562 -21.859375 72.9375 -22.234375 C 79.15625 -22.609375 84.703125 -23.050781 89.578125 -23.5625 C 89.660156 -21.96875 89.679688 -20.304688 89.640625 -18.578125 C 89.597656 -16.859375 89.492188 -15.117188 89.328125 -13.359375 Z M 89.328125 -13.359375 "/></g></g></g><g fill="#00ffff" fill-opacity="1"><g transform="translate(498.835405, 119.311039)"><g><path d="M 99.78125 -54.671875 L 51.03125 -54.671875 C 51.445312 -58.367188 51.945312 -61.5625 52.53125 -64.25 C 55.46875 -64.414062 59.035156 -64.5625 63.234375 -64.6875 C 67.441406 -64.8125 71.832031 -64.875 76.40625 -64.875 C 80.988281 -64.875 85.378906 -64.8125 89.578125 -64.6875 C 93.773438 -64.5625 97.300781 -64.414062 100.15625 -64.25 C 100.15625 -61.144531 100.03125 -57.953125 99.78125 -54.671875 Z M 38.171875 -15.75 L 24.3125 -54.671875 L 1.765625 -54.671875 C 1.929688 -56.441406 2.160156 -58.144531 2.453125 -59.78125 C 2.742188 -61.414062 3.0625 -62.90625 3.40625 -64.25 C 6.84375 -64.5 10.578125 -64.644531 14.609375 -64.6875 C 18.640625 -64.726562 22.691406 -64.726562 26.765625 -64.6875 C 30.835938 -64.644531 34.554688 -64.5 37.921875 -64.25 L 51.40625 -22.546875 L 52.78125 -22.546875 L 59.71875 -42.453125 L 50.140625 -42.453125 C 50.222656 -43.960938 50.304688 -45.453125 50.390625 -46.921875 C 50.472656 -48.398438 50.554688 -49.851562 50.640625 -51.28125 L 77.234375 -51.28125 L 65.390625 -15.75 Z M 9.828125 13.484375 C 10.078125 11.546875 10.390625 9.609375 10.765625 7.671875 C 11.148438 5.742188 11.632812 3.859375 12.21875 2.015625 C 15.414062 2.429688 18.25 2.722656 20.71875 2.890625 C 23.195312 3.066406 25.738281 3.15625 28.34375 3.15625 L 29.234375 3.15625 C 33.429688 3.15625 36.640625 3.003906 38.859375 2.703125 C 41.085938 2.410156 42.707031 1.78125 43.71875 0.8125 C 44.726562 -0.144531 45.523438 -1.675781 46.109375 -3.78125 C 41.410156 -3.695312 36.9375 -3.675781 32.6875 -3.71875 C 28.445312 -3.757812 24.691406 -4.113281 21.421875 -4.78125 L 6.921875 -42.453125 L 1.265625 -42.453125 C 1.265625 -43.878906 1.285156 -45.328125 1.328125 -46.796875 C 1.367188 -48.273438 1.429688 -49.769531 1.515625 -51.28125 L 21.421875 -51.28125 L 35.53125 -12.59375 L 64.375 -12.59375 C 62.363281 -6.882812 60.390625 -2.226562 58.453125 1.375 C 56.523438 4.988281 54.445312 7.800781 52.21875 9.8125 C 49.988281 11.832031 47.425781 13.222656 44.53125 13.984375 C 41.632812 14.742188 38.253906 15.125 34.390625 15.125 C 30.523438 15.125 26.300781 14.972656 21.71875 14.671875 C 17.144531 14.378906 13.179688 13.984375 9.828125 13.484375 Z M 8.8125 27.34375 C 8.8125 25.65625 8.875 23.972656 9 22.296875 C 9.132812 20.617188 9.242188 18.941406 9.328125 17.265625 C 12.765625 17.597656 16.6875 17.910156 21.09375 18.203125 C 25.507812 18.492188 29.898438 18.640625 34.265625 18.640625 C 38.460938 18.640625 42.15625 18.238281 45.34375 17.4375 C 48.539062 16.644531 51.421875 15.21875 53.984375 13.15625 C 56.546875 11.101562 58.914062 8.125 61.09375 4.21875 C 63.28125 0.3125 65.425781 -4.703125 67.53125 -10.828125 L 81.390625 -51.28125 L 99.53125 -51.28125 C 99.101562 -48 98.640625 -45.054688 98.140625 -42.453125 L 92.46875 -42.453125 L 81.140625 -9.703125 C 78.359375 -1.722656 75.644531 4.785156 73 9.828125 C 70.363281 14.867188 67.363281 18.773438 64 21.546875 C 60.632812 24.316406 56.597656 26.222656 51.890625 27.265625 C 47.191406 28.316406 41.441406 28.84375 34.640625 28.84375 C 29.691406 28.84375 24.882812 28.675781 20.21875 28.34375 C 15.5625 28.007812 11.757812 27.675781 8.8125 27.34375 Z M 8.8125 27.34375 "/></g></g></g><g fill="#00ffff" fill-opacity="1"><g transform="translate(599.617633, 119.311039)"><g><path d="M 3.28125 -54.671875 C 3.445312 -56.179688 3.632812 -57.671875 3.84375 -59.140625 C 4.050781 -60.617188 4.320312 -62.03125 4.65625 -63.375 C 6.082031 -63.457031 7.46875 -63.5 8.8125 -63.5 C 10.15625 -63.5 11.5 -63.5 12.84375 -63.5 C 12.675781 -70.71875 13.707031 -76.300781 15.9375 -80.25 C 18.164062 -84.195312 22.007812 -86.925781 27.46875 -88.4375 C 32.925781 -89.945312 40.316406 -90.703125 49.640625 -90.703125 C 52.992188 -90.703125 56.179688 -90.660156 59.203125 -90.578125 C 62.234375 -90.492188 64.84375 -90.285156 67.03125 -89.953125 C 67.03125 -88.609375 67.03125 -87.242188 67.03125 -85.859375 C 67.03125 -84.472656 66.941406 -83.066406 66.765625 -81.640625 C 56.859375 -82.566406 49.238281 -82.628906 43.90625 -81.828125 C 38.570312 -81.023438 34.894531 -79.28125 32.875 -76.59375 C 30.863281 -73.90625 29.859375 -70.128906 29.859375 -65.265625 L 29.859375 -54.671875 Z M 64.375 -54.671875 L 33.390625 -54.671875 L 33.390625 -64.375 C 33.390625 -69.164062 34.289062 -72.710938 36.09375 -75.015625 C 37.894531 -77.328125 41.191406 -78.691406 45.984375 -79.109375 C 50.773438 -79.535156 57.617188 -79.367188 66.515625 -78.609375 C 66.429688 -77.097656 66.265625 -75.566406 66.015625 -74.015625 C 65.765625 -72.460938 65.472656 -70.972656 65.140625 -69.546875 C 63.796875 -69.710938 62.578125 -69.796875 61.484375 -69.796875 C 60.390625 -69.796875 59.128906 -69.796875 57.703125 -69.796875 C 54.421875 -69.796875 52.234375 -69.207031 51.140625 -68.03125 C 50.054688 -66.851562 49.679688 -65.300781 50.015625 -63.375 L 64.5 -63 C 64.5 -61.5625 64.5 -60.148438 64.5 -58.765625 C 64.5 -57.378906 64.457031 -56.015625 64.375 -54.671875 Z M 4.28125 -11.71875 C 4.445312 -13.394531 4.632812 -15.070312 4.84375 -16.75 C 5.0625 -18.4375 5.335938 -20.117188 5.671875 -21.796875 L 13.109375 -21.796875 L 13.109375 -42.078125 C 11.421875 -42.160156 9.695312 -42.203125 7.9375 -42.203125 C 6.175781 -42.203125 4.453125 -42.242188 2.765625 -42.328125 C 2.765625 -43.835938 2.785156 -45.347656 2.828125 -46.859375 C 2.867188 -48.378906 2.9375 -49.851562 3.03125 -51.28125 L 29.859375 -51.28125 L 29.859375 -11.71875 Z M 62.734375 -11.71875 L 33.390625 -11.71875 L 33.390625 -51.28125 L 64 -51.28125 C 63.914062 -49.769531 63.769531 -48.273438 63.5625 -46.796875 C 63.351562 -45.328125 63.078125 -43.835938 62.734375 -42.328125 C 60.640625 -42.242188 58.539062 -42.179688 56.4375 -42.140625 C 54.34375 -42.097656 52.242188 -42.078125 50.140625 -42.078125 L 50.140625 -21.796875 L 63.125 -21.796875 C 63.125 -18.347656 62.992188 -14.988281 62.734375 -11.71875 Z M 3.53125 0 C 3.613281 -1.425781 3.695312 -2.875 3.78125 -4.34375 C 3.863281 -5.8125 3.945312 -7.21875 4.03125 -8.5625 L 62.484375 -8.5625 C 62.066406 -5.539062 61.5625 -2.6875 60.96875 0 C 57.113281 0.164062 52.6875 0.289062 47.6875 0.375 C 42.6875 0.457031 37.539062 0.5 32.25 0.5 C 26.957031 0.5 21.832031 0.457031 16.875 0.375 C 11.925781 0.289062 7.476562 0.164062 3.53125 0 Z M 3.53125 0 "/></g></g></g><g fill="#00ffff" fill-opacity="1"><g transform="translate(666.511766, 119.311039)"><g><path d="M 52.78125 -82.640625 L 12.34375 -82.640625 C 12.507812 -84.066406 12.738281 -85.453125 13.03125 -86.796875 C 13.332031 -88.140625 13.691406 -89.441406 14.109375 -90.703125 C 20.578125 -91.210938 27 -91.445312 33.375 -91.40625 C 39.757812 -91.363281 46.398438 -91.128906 53.296875 -90.703125 C 53.296875 -89.617188 53.253906 -88.359375 53.171875 -86.921875 C 53.085938 -85.492188 52.957031 -84.066406 52.78125 -82.640625 Z M 11.59375 -70.671875 C 11.59375 -73.703125 11.71875 -76.601562 11.96875 -79.375 L 52.40625 -79.375 C 52.238281 -77.769531 52.007812 -76.210938 51.71875 -74.703125 C 51.425781 -73.191406 51.109375 -71.847656 50.765625 -70.671875 C 38.585938 -70.253906 25.53125 -70.253906 11.59375 -70.671875 Z M 57.453125 -11.71875 L 33.390625 -11.71875 L 33.390625 -54.671875 L 3.40625 -54.671875 C 3.738281 -57.953125 4.238281 -61.144531 4.90625 -64.25 C 12.382812 -64.582031 20.175781 -64.75 28.28125 -64.75 C 36.382812 -64.75 44.132812 -64.582031 51.53125 -64.25 L 50.140625 -42.453125 L 50.140625 -21.796875 L 57.828125 -21.796875 C 57.828125 -18.347656 57.703125 -14.988281 57.453125 -11.71875 Z M 4.40625 -11.71875 C 4.570312 -13.394531 4.757812 -15.070312 4.96875 -16.75 C 5.1875 -18.4375 5.460938 -20.117188 5.796875 -21.796875 L 13.109375 -21.796875 L 13.109375 -41.953125 C 11.335938 -42.035156 9.570312 -42.117188 7.8125 -42.203125 C 6.050781 -42.285156 4.328125 -42.367188 2.640625 -42.453125 C 2.722656 -44.046875 2.804688 -45.578125 2.890625 -47.046875 C 2.984375 -48.523438 3.070312 -49.9375 3.15625 -51.28125 L 29.859375 -51.28125 L 29.859375 -11.71875 Z M 3.65625 0 C 3.738281 -1.425781 3.820312 -2.875 3.90625 -4.34375 C 3.988281 -5.8125 4.070312 -7.21875 4.15625 -8.5625 L 57.203125 -8.5625 C 57.023438 -7.050781 56.8125 -5.601562 56.5625 -4.21875 C 56.3125 -2.832031 56.0625 -1.425781 55.8125 0 C 52.53125 0.164062 48.535156 0.289062 43.828125 0.375 C 39.128906 0.457031 34.238281 0.5 29.15625 0.5 C 24.082031 0.5 19.296875 0.457031 14.796875 0.375 C 10.304688 0.289062 6.59375 0.164062 3.65625 0 Z M 3.65625 0 "/></g></g></g><g fill="#00ffff" fill-opacity="1"><g transform="translate(725.72132, 119.311039)"><g><path d="M 108.71875 -11.71875 L 83.40625 -11.71875 C 83.820312 -14.320312 84.195312 -17.785156 84.53125 -22.109375 C 84.875 -26.429688 85.046875 -31.953125 85.046875 -38.671875 C 85.046875 -42.285156 84.582031 -45.3125 83.65625 -47.75 C 82.726562 -50.1875 80.941406 -52.035156 78.296875 -53.296875 C 75.648438 -54.554688 71.722656 -55.1875 66.515625 -55.1875 C 63.410156 -55.1875 60.257812 -55.015625 57.0625 -54.671875 C 53.875 -54.335938 51.0625 -53.707031 48.625 -52.78125 C 50.726562 -56.894531 53.0625 -59.9375 55.625 -61.90625 C 58.1875 -63.882812 61.125 -65.1875 64.4375 -65.8125 C 67.757812 -66.445312 71.601562 -66.765625 75.96875 -66.765625 C 81.757812 -66.765625 86.585938 -66.34375 90.453125 -65.5 C 94.316406 -64.664062 97.273438 -62.882812 99.328125 -60.15625 C 101.390625 -57.425781 102.503906 -53.207031 102.671875 -47.5 L 102.796875 -43.71875 C 102.878906 -39.851562 102.691406 -35.90625 102.234375 -31.875 C 101.773438 -27.84375 101.289062 -24.484375 100.78125 -21.796875 L 109.234375 -21.796875 C 109.234375 -20.117188 109.1875 -18.4375 109.09375 -16.75 C 109.007812 -15.070312 108.882812 -13.394531 108.71875 -11.71875 Z M 63 0 C 63.414062 -3.269531 63.769531 -7.023438 64.0625 -11.265625 C 64.351562 -15.515625 64.582031 -19.109375 64.75 -22.046875 L 64.5 -32.375 C 64.414062 -35.90625 63.722656 -38.128906 62.421875 -39.046875 C 61.117188 -39.972656 59.125 -40.4375 56.4375 -40.4375 C 54.257812 -40.4375 51.953125 -40.1875 49.515625 -39.6875 L 49.515625 -21.796875 L 57.578125 -21.796875 C 57.578125 -18.265625 57.453125 -14.738281 57.203125 -11.21875 L 57.203125 -11.71875 L 32.75 -11.71875 L 32.75 -54.671875 L 3.28125 -54.671875 C 3.695312 -57.953125 4.238281 -61.144531 4.90625 -64.25 C 8.601562 -64.5 12.613281 -64.644531 16.9375 -64.6875 C 21.269531 -64.726562 25.617188 -64.726562 29.984375 -64.6875 C 34.347656 -64.644531 38.335938 -64.5 41.953125 -64.25 L 46.609375 -49.140625 L 46.859375 -49.140625 C 49.640625 -50.140625 52.644531 -50.847656 55.875 -51.265625 C 59.101562 -51.691406 62.273438 -51.90625 65.390625 -51.90625 C 70.085938 -51.90625 73.59375 -51.335938 75.90625 -50.203125 C 78.21875 -49.066406 79.726562 -47.40625 80.4375 -45.21875 C 81.15625 -43.039062 81.515625 -40.441406 81.515625 -37.421875 C 81.515625 -30.535156 81.300781 -24.90625 80.875 -20.53125 C 80.457031 -16.164062 80 -12.175781 79.5 -8.5625 L 108.46875 -8.5625 C 108.300781 -7.050781 108.070312 -5.582031 107.78125 -4.15625 C 107.488281 -2.726562 107.171875 -1.34375 106.828125 0 C 104.140625 0.25 100.90625 0.414062 97.125 0.5 C 93.351562 0.582031 89.363281 0.625 85.15625 0.625 C 80.957031 0.625 76.925781 0.5625 73.0625 0.4375 C 69.207031 0.3125 65.851562 0.164062 63 0 Z M 4.65625 -11.71875 C 4.820312 -13.394531 5.007812 -15.070312 5.21875 -16.75 C 5.4375 -18.4375 5.710938 -20.117188 6.046875 -21.796875 L 12.46875 -21.796875 L 12.46875 -42.453125 L 2.640625 -42.453125 L 3.03125 -51.28125 L 29.234375 -51.28125 L 29.234375 -11.71875 Z M 3.90625 0 C 3.988281 -1.425781 4.070312 -2.875 4.15625 -4.34375 C 4.238281 -5.8125 4.320312 -7.21875 4.40625 -8.5625 L 56.9375 -8.5625 C 56.769531 -7.050781 56.5625 -5.601562 56.3125 -4.21875 C 56.0625 -2.832031 55.8125 -1.425781 55.5625 0 C 52.28125 0.164062 48.375 0.289062 43.84375 0.375 C 39.3125 0.457031 34.609375 0.5 29.734375 0.5 C 24.859375 0.5 20.148438 0.457031 15.609375 0.375 C 11.078125 0.289062 7.175781 0.164062 3.90625 0 Z M 3.90625 0 "/></g></g></g><g fill="#ffffff" fill-opacity="1"><g transform="translate(1.443899, 119.311039)"><g><path d="M 75.84375 -12.96875 L 52.28125 -74.328125 L 2.890625 -74.328125 C 3.066406 -75.753906 3.257812 -77.160156 3.46875 -78.546875 C 3.675781 -79.929688 3.90625 -81.296875 4.15625 -82.640625 C 7.09375 -82.804688 10.679688 -82.910156 14.921875 -82.953125 C 19.171875 -83.003906 23.75 -83.050781 28.65625 -83.09375 C 33.570312 -83.132812 38.460938 -83.132812 43.328125 -83.09375 C 48.203125 -83.050781 52.78125 -83.003906 57.0625 -82.953125 C 61.351562 -82.910156 64.925781 -82.804688 67.78125 -82.640625 L 80.875 -46.734375 L 95.25 -82.640625 C 98.851562 -82.804688 103.257812 -82.929688 108.46875 -83.015625 C 113.675781 -83.109375 119.132812 -83.15625 124.84375 -83.15625 C 130.5625 -83.15625 136.023438 -83.109375 141.234375 -83.015625 C 146.441406 -82.929688 150.847656 -82.804688 154.453125 -82.640625 C 154.453125 -81.296875 154.453125 -79.929688 154.453125 -78.546875 C 154.453125 -77.160156 154.410156 -75.753906 154.328125 -74.328125 L 104.4375 -74.328125 L 78.484375 -12.96875 Z M 59.71875 -1.265625 L 41.828125 -48.375 L 40.6875 -48.375 L 40.6875 -23.0625 L 47.75 -23.0625 C 47.75 -21.457031 47.75 -19.816406 47.75 -18.140625 C 47.75 -16.460938 47.664062 -14.785156 47.5 -13.109375 L 28.09375 -13.109375 L 28.09375 -71.1875 L 49.765625 -71.1875 L 73.703125 -9.828125 L 80.5 -9.828125 L 106.703125 -71.1875 L 126.109375 -71.1875 L 126.109375 -13.109375 L 101.546875 -13.109375 C 101.710938 -14.785156 101.898438 -16.460938 102.109375 -18.140625 C 102.316406 -19.816406 102.546875 -21.457031 102.796875 -23.0625 L 108.96875 -23.0625 L 108.96875 -48.5 L 107.84375 -48.5 L 89.578125 -1.265625 C 87.554688 -1.097656 85.117188 -0.96875 82.265625 -0.875 C 79.410156 -0.789062 76.492188 -0.75 73.515625 -0.75 C 70.535156 -0.75 67.804688 -0.789062 65.328125 -0.875 C 62.847656 -0.96875 60.976562 -1.097656 59.71875 -1.265625 Z M 2.765625 -13.109375 C 2.941406 -14.785156 3.132812 -16.460938 3.34375 -18.140625 C 3.550781 -19.816406 3.78125 -21.457031 4.03125 -23.0625 L 11.71875 -23.0625 L 11.71875 -59.59375 L 2.015625 -59.59375 C 2.097656 -61.4375 2.179688 -63.320312 2.265625 -65.25 C 2.347656 -67.1875 2.472656 -69.078125 2.640625 -70.921875 L 24.5625 -70.921875 L 24.5625 -13.109375 Z M 154.328125 -13.109375 L 129.640625 -13.109375 L 129.640625 -70.921875 L 154.078125 -70.921875 C 153.910156 -68.910156 153.703125 -66.9375 153.453125 -65 C 153.203125 -63.070312 152.863281 -61.269531 152.4375 -59.59375 L 146.015625 -59.59375 L 146.015625 -23.0625 L 154.578125 -23.0625 C 154.578125 -21.457031 154.578125 -19.816406 154.578125 -18.140625 C 154.578125 -16.460938 154.492188 -14.785156 154.328125 -13.109375 Z M 2.015625 0 C 2.015625 -1.59375 2.054688 -3.226562 2.140625 -4.90625 C 2.222656 -6.59375 2.304688 -8.234375 2.390625 -9.828125 L 47.375 -9.828125 C 47.207031 -8.066406 47.015625 -6.34375 46.796875 -4.65625 C 46.585938 -2.976562 46.316406 -1.425781 45.984375 0 C 41.617188 0.25 36.769531 0.414062 31.4375 0.5 C 26.101562 0.582031 20.851562 0.582031 15.6875 0.5 C 10.519531 0.414062 5.960938 0.25 2.015625 0 Z M 100.65625 0 C 100.738281 -1.59375 100.84375 -3.207031 100.96875 -4.84375 C 101.101562 -6.488281 101.210938 -8.148438 101.296875 -9.828125 L 153.953125 -9.828125 C 153.867188 -8.066406 153.703125 -6.34375 153.453125 -4.65625 C 153.203125 -2.976562 152.90625 -1.425781 152.5625 0 C 149.289062 0.164062 145.320312 0.289062 140.65625 0.375 C 136 0.457031 131.148438 0.5 126.109375 0.5 C 121.066406 0.5 116.300781 0.457031 111.8125 0.375 C 107.320312 0.289062 103.601562 0.164062 100.65625 0 Z M 100.65625 0 "/></g></g></g><g fill="#ffffff" fill-opacity="1"><g transform="translate(156.774432, 119.311039)"><g><path d="M 99.78125 -54.671875 L 51.03125 -54.671875 C 51.445312 -58.367188 51.945312 -61.5625 52.53125 -64.25 C 55.46875 -64.414062 59.035156 -64.5625 63.234375 -64.6875 C 67.441406 -64.8125 71.832031 -64.875 76.40625 -64.875 C 80.988281 -64.875 85.378906 -64.8125 89.578125 -64.6875 C 93.773438 -64.5625 97.300781 -64.414062 100.15625 -64.25 C 100.15625 -61.144531 100.03125 -57.953125 99.78125 -54.671875 Z M 38.171875 -15.75 L 24.3125 -54.671875 L 1.765625 -54.671875 C 1.929688 -56.441406 2.160156 -58.144531 2.453125 -59.78125 C 2.742188 -61.414062 3.0625 -62.90625 3.40625 -64.25 C 6.84375 -64.5 10.578125 -64.644531 14.609375 -64.6875 C 18.640625 -64.726562 22.691406 -64.726562 26.765625 -64.6875 C 30.835938 -64.644531 34.554688 -64.5 37.921875 -64.25 L 51.40625 -22.546875 L 52.78125 -22.546875 L 59.71875 -42.453125 L 50.140625 -42.453125 C 50.222656 -43.960938 50.304688 -45.453125 50.390625 -46.921875 C 50.472656 -48.398438 50.554688 -49.851562 50.640625 -51.28125 L 77.234375 -51.28125 L 65.390625 -15.75 Z M 9.828125 13.484375 C 10.078125 11.546875 10.390625 9.609375 10.765625 7.671875 C 11.148438 5.742188 11.632812 3.859375 12.21875 2.015625 C 15.414062 2.429688 18.25 2.722656 20.71875 2.890625 C 23.195312 3.066406 25.738281 3.15625 28.34375 3.15625 L 29.234375 3.15625 C 33.429688 3.15625 36.640625 3.003906 38.859375 2.703125 C 41.085938 2.410156 42.707031 1.78125 43.71875 0.8125 C 44.726562 -0.144531 45.523438 -1.675781 46.109375 -3.78125 C 41.410156 -3.695312 36.9375 -3.675781 32.6875 -3.71875 C 28.445312 -3.757812 24.691406 -4.113281 21.421875 -4.78125 L 6.921875 -42.453125 L 1.265625 -42.453125 C 1.265625 -43.878906 1.285156 -45.328125 1.328125 -46.796875 C 1.367188 -48.273438 1.429688 -49.769531 1.515625 -51.28125 L 21.421875 -51.28125 L 35.53125 -12.59375 L 64.375 -12.59375 C 62.363281 -6.882812 60.390625 -2.226562 58.453125 1.375 C 56.523438 4.988281 54.445312 7.800781 52.21875 9.8125 C 49.988281 11.832031 47.425781 13.222656 44.53125 13.984375 C 41.632812 14.742188 38.253906 15.125 34.390625 15.125 C 30.523438 15.125 26.300781 14.972656 21.71875 14.671875 C 17.144531 14.378906 13.179688 13.984375 9.828125 13.484375 Z M 8.8125 27.34375 C 8.8125 25.65625 8.875 23.972656 9 22.296875 C 9.132812 20.617188 9.242188 18.941406 9.328125 17.265625 C 12.765625 17.597656 16.6875 17.910156 21.09375 18.203125 C 25.507812 18.492188 29.898438 18.640625 34.265625 18.640625 C 38.460938 18.640625 42.15625 18.238281 45.34375 17.4375 C 48.539062 16.644531 51.421875 15.21875 53.984375 13.15625 C 56.546875 11.101562 58.914062 8.125 61.09375 4.21875 C 63.28125 0.3125 65.425781 -4.703125 67.53125 -10.828125 L 81.390625 -51.28125 L 99.53125 -51.28125 C 99.101562 -48 98.640625 -45.054688 98.140625 -42.453125 L 92.46875 -42.453125 L 81.140625 -9.703125 C 78.359375 -1.722656 75.644531 4.785156 73 9.828125 C 70.363281 14.867188 67.363281 18.773438 64 21.546875 C 60.632812 24.316406 56.597656 26.222656 51.890625 27.265625 C 47.191406 28.316406 41.441406 28.84375 34.640625 28.84375 C 29.691406 28.84375 24.882812 28.675781 20.21875 28.34375 C 15.5625 28.007812 11.757812 27.675781 8.8125 27.34375 Z M 8.8125 27.34375 "/></g></g></g><g fill="#ffffff" fill-opacity="1"><g transform="translate(257.556629, 119.311039)"><g><path d="M 58.578125 -35.65625 L 4.40625 -35.65625 C 4.40625 -37.5 4.46875 -39.21875 4.59375 -40.8125 C 4.71875 -42.414062 4.820312 -43.757812 4.90625 -44.84375 L 58.578125 -44.84375 C 58.578125 -43.925781 58.597656 -42.644531 58.640625 -41 C 58.679688 -39.363281 58.660156 -37.582031 58.578125 -35.65625 Z M 4.28125 -32.125 L 58.578125 -32.125 C 58.492188 -30.28125 58.390625 -28.535156 58.265625 -26.890625 C 58.140625 -25.253906 57.992188 -23.890625 57.828125 -22.796875 L 4.40625 -22.796875 C 4.320312 -23.972656 4.28125 -25.378906 4.28125 -27.015625 C 4.28125 -28.660156 4.28125 -30.363281 4.28125 -32.125 Z M 4.28125 -32.125 "/></g></g></g><g fill="#ffffff" fill-opacity="1"><g transform="translate(320.545505, 119.311039)"><g><path d="M 27.09375 -27.84375 C 21.457031 -28.425781 16.832031 -29.265625 13.21875 -30.359375 C 9.613281 -31.453125 6.96875 -33.148438 5.28125 -35.453125 C 3.601562 -37.765625 2.765625 -41.109375 2.765625 -45.484375 C 2.765625 -49.265625 3.375 -52.5 4.59375 -55.1875 C 5.8125 -57.875 7.992188 -60.078125 11.140625 -61.796875 C 14.296875 -63.515625 18.707031 -64.769531 24.375 -65.5625 C 30.039062 -66.363281 37.285156 -66.765625 46.109375 -66.765625 C 56.015625 -66.765625 64.179688 -66.445312 70.609375 -65.8125 C 77.035156 -65.1875 82.304688 -64.414062 86.421875 -63.5 C 86.421875 -61.476562 86.316406 -58.976562 86.109375 -56 C 85.898438 -53.019531 85.625 -50.035156 85.28125 -47.046875 C 84.945312 -44.066406 84.488281 -41.445312 83.90625 -39.1875 C 81.882812 -39.007812 79.78125 -38.878906 77.59375 -38.796875 C 75.414062 -38.710938 73.238281 -38.671875 71.0625 -38.671875 L 71.0625 -55.1875 C 67.695312 -56.101562 63.851562 -56.726562 59.53125 -57.0625 C 55.207031 -57.40625 50.773438 -57.578125 46.234375 -57.578125 C 36.578125 -57.492188 29.375 -56.234375 24.625 -53.796875 C 19.882812 -51.359375 17.515625 -47.160156 17.515625 -41.203125 C 17.515625 -37.585938 18.375 -34.6875 20.09375 -32.5 C 21.8125 -30.320312 24.144531 -28.769531 27.09375 -27.84375 Z M 21.796875 -11.96875 L 21.796875 -25.078125 C 24.484375 -24.984375 26.851562 -24.9375 28.90625 -24.9375 C 30.96875 -24.9375 33.300781 -24.8125 35.90625 -24.5625 L 35.90625 -18.140625 C 37.082031 -17.972656 38.320312 -17.847656 39.625 -17.765625 C 40.925781 -17.679688 42.289062 -17.640625 43.71875 -17.640625 C 46.65625 -17.640625 48.921875 -17.890625 50.515625 -18.390625 C 52.109375 -18.898438 52.90625 -20.035156 52.90625 -21.796875 C 52.90625 -22.804688 52.503906 -23.601562 51.703125 -24.1875 C 50.910156 -24.78125 49.398438 -25.285156 47.171875 -25.703125 C 44.953125 -26.117188 41.703125 -26.582031 37.421875 -27.09375 C 31.285156 -27.84375 27 -29.539062 24.5625 -32.1875 C 22.125 -34.832031 20.90625 -37.960938 20.90625 -41.578125 C 20.90625 -45.941406 22.773438 -49.109375 26.515625 -51.078125 C 30.253906 -53.054688 36.703125 -54.085938 45.859375 -54.171875 C 48.710938 -54.171875 52.195312 -54.109375 56.3125 -53.984375 C 60.425781 -53.859375 64.125 -53.414062 67.40625 -52.65625 L 67.40625 -38.671875 C 65.050781 -38.671875 62.757812 -38.734375 60.53125 -38.859375 C 58.3125 -38.992188 56.191406 -39.101562 54.171875 -39.1875 L 54.171875 -45.109375 C 52.992188 -45.273438 51.734375 -45.398438 50.390625 -45.484375 C 49.046875 -45.566406 47.957031 -45.609375 47.125 -45.609375 C 43.757812 -45.609375 41.507812 -45.289062 40.375 -44.65625 C 39.238281 -44.03125 38.671875 -43.171875 38.671875 -42.078125 C 38.671875 -40.484375 39.363281 -39.410156 40.75 -38.859375 C 42.132812 -38.316406 45.140625 -37.835938 49.765625 -37.421875 C 55.054688 -36.992188 59.148438 -36.046875 62.046875 -34.578125 C 64.941406 -33.109375 66.957031 -31.363281 68.09375 -29.34375 C 69.226562 -27.332031 69.796875 -25.28125 69.796875 -23.1875 C 69.796875 -19.40625 68.742188 -16.609375 66.640625 -14.796875 C 64.546875 -12.992188 61.503906 -11.835938 57.515625 -11.328125 C 53.523438 -10.828125 48.71875 -10.492188 43.09375 -10.328125 C 41.15625 -10.328125 38.90625 -10.367188 36.34375 -10.453125 C 33.78125 -10.535156 31.195312 -10.703125 28.59375 -10.953125 C 25.988281 -11.210938 23.722656 -11.550781 21.796875 -11.96875 Z M 2.515625 -0.375 C 2.679688 -4.40625 2.972656 -8.5625 3.390625 -12.84375 C 3.816406 -17.132812 4.367188 -21.039062 5.046875 -24.5625 C 6.804688 -24.726562 8.816406 -24.832031 11.078125 -24.875 C 13.347656 -24.914062 15.703125 -24.984375 18.140625 -25.078125 L 18.140625 -9.203125 C 20.910156 -8.359375 24.5625 -7.765625 29.09375 -7.421875 C 33.632812 -7.085938 38.171875 -6.921875 42.703125 -6.921875 C 49.171875 -7.015625 54.671875 -7.414062 59.203125 -8.125 C 63.742188 -8.84375 67.234375 -10.394531 69.671875 -12.78125 C 72.109375 -15.175781 73.328125 -18.894531 73.328125 -23.9375 C 73.328125 -26.539062 72.613281 -28.910156 71.1875 -31.046875 C 69.757812 -33.191406 67.320312 -34.851562 63.875 -36.03125 C 72.1875 -35.101562 78.335938 -33.460938 82.328125 -31.109375 C 86.316406 -28.765625 88.3125 -24.863281 88.3125 -19.40625 C 88.3125 -15.289062 87.597656 -11.820312 86.171875 -9 C 84.742188 -6.1875 82.328125 -3.941406 78.921875 -2.265625 C 75.523438 -0.585938 70.863281 0.625 64.9375 1.375 C 59.019531 2.132812 51.523438 2.515625 42.453125 2.515625 C 35.898438 2.515625 30.25 2.390625 25.5 2.140625 C 20.757812 1.890625 16.582031 1.53125 12.96875 1.0625 C 9.363281 0.601562 5.878906 0.125 2.515625 -0.375 Z M 2.515625 -0.375 "/></g></g></g><g fill="#ffffff" fill-opacity="1"><g transform="translate(410.115699, 119.311039)"><g><path d="M 48.625 2.515625 C 39.050781 2.515625 31.257812 1.945312 25.25 0.8125 C 19.25 -0.3125 14.585938 -2.175781 11.265625 -4.78125 C 7.953125 -7.382812 5.664062 -10.804688 4.40625 -15.046875 C 3.144531 -19.296875 2.515625 -24.523438 2.515625 -30.734375 C 2.515625 -37.035156 3.207031 -42.453125 4.59375 -46.984375 C 5.976562 -51.523438 8.476562 -55.265625 12.09375 -58.203125 C 15.707031 -61.140625 20.769531 -63.300781 27.28125 -64.6875 C 33.789062 -66.070312 42.125 -66.765625 52.28125 -66.765625 C 60.007812 -66.765625 67.109375 -66.363281 73.578125 -65.5625 C 80.046875 -64.769531 85.210938 -63.660156 89.078125 -62.234375 C 89.078125 -56.523438 88.71875 -50.832031 88 -45.15625 C 87.28125 -39.488281 86.460938 -34.390625 85.546875 -29.859375 C 83.609375 -29.773438 81.585938 -29.671875 79.484375 -29.546875 C 77.390625 -29.421875 75.253906 -29.316406 73.078125 -29.234375 L 73.203125 -54.921875 C 70.429688 -55.847656 67.023438 -56.457031 62.984375 -56.75 C 58.953125 -57.050781 54.335938 -57.203125 49.140625 -57.203125 C 38.972656 -57.203125 31.285156 -55.375 26.078125 -51.71875 C 20.867188 -48.0625 18.265625 -41.53125 18.265625 -32.125 C 18.265625 -25.988281 19.1875 -21.15625 21.03125 -17.625 C 22.882812 -14.101562 26.285156 -11.609375 31.234375 -10.140625 C 36.191406 -8.671875 43.25 -7.9375 52.40625 -7.9375 C 58.875 -7.9375 65.191406 -8.0625 71.359375 -8.3125 C 77.535156 -8.5625 83.394531 -9.191406 88.9375 -10.203125 C 88.769531 -8.523438 88.5625 -6.910156 88.3125 -5.359375 C 88.0625 -3.804688 87.726562 -2.359375 87.3125 -1.015625 C 87.3125 -1.015625 86.050781 -0.71875 83.53125 -0.125 C 81.007812 0.457031 76.910156 1.039062 71.234375 1.625 C 65.566406 2.21875 58.03125 2.515625 48.625 2.515625 Z M 89.328125 -13.359375 C 83.273438 -12.429688 77.179688 -11.820312 71.046875 -11.53125 C 64.921875 -11.238281 58.960938 -11.09375 53.171875 -11.09375 C 44.847656 -11.09375 38.441406 -11.65625 33.953125 -12.78125 C 29.460938 -13.914062 26.332031 -15.992188 24.5625 -19.015625 C 22.800781 -22.046875 21.921875 -26.457031 21.921875 -32.25 C 21.921875 -40.476562 24.164062 -46.125 28.65625 -49.1875 C 33.15625 -52.257812 39.851562 -53.796875 48.75 -53.796875 C 53.457031 -53.796875 57.488281 -53.691406 60.84375 -53.484375 C 64.207031 -53.273438 67.148438 -52.832031 69.671875 -52.15625 L 69.671875 -29.234375 C 63.703125 -29.054688 58.492188 -29.179688 54.046875 -29.609375 L 54.046875 -43.34375 C 53.117188 -43.59375 52.210938 -43.757812 51.328125 -43.84375 C 50.453125 -43.925781 49.550781 -43.96875 48.625 -43.96875 C 45.601562 -43.96875 43.359375 -43.210938 41.890625 -41.703125 C 40.421875 -40.191406 39.6875 -37.335938 39.6875 -33.140625 C 39.6875 -28.347656 40.710938 -25.238281 42.765625 -23.8125 C 44.828125 -22.382812 48.421875 -21.671875 53.546875 -21.671875 C 60.265625 -21.671875 66.726562 -21.859375 72.9375 -22.234375 C 79.15625 -22.609375 84.703125 -23.050781 89.578125 -23.5625 C 89.660156 -21.96875 89.679688 -20.304688 89.640625 -18.578125 C 89.597656 -16.859375 89.492188 -15.117188 89.328125 -13.359375 Z M 89.328125 -13.359375 "/></g></g></g><g fill="#ffffff" fill-opacity="1"><g transform="translate(501.197591, 119.311039)"><g><path d="M 99.78125 -54.671875 L 51.03125 -54.671875 C 51.445312 -58.367188 51.945312 -61.5625 52.53125 -64.25 C 55.46875 -64.414062 59.035156 -64.5625 63.234375 -64.6875 C 67.441406 -64.8125 71.832031 -64.875 76.40625 -64.875 C 80.988281 -64.875 85.378906 -64.8125 89.578125 -64.6875 C 93.773438 -64.5625 97.300781 -64.414062 100.15625 -64.25 C 100.15625 -61.144531 100.03125 -57.953125 99.78125 -54.671875 Z M 38.171875 -15.75 L 24.3125 -54.671875 L 1.765625 -54.671875 C 1.929688 -56.441406 2.160156 -58.144531 2.453125 -59.78125 C 2.742188 -61.414062 3.0625 -62.90625 3.40625 -64.25 C 6.84375 -64.5 10.578125 -64.644531 14.609375 -64.6875 C 18.640625 -64.726562 22.691406 -64.726562 26.765625 -64.6875 C 30.835938 -64.644531 34.554688 -64.5 37.921875 -64.25 L 51.40625 -22.546875 L 52.78125 -22.546875 L 59.71875 -42.453125 L 50.140625 -42.453125 C 50.222656 -43.960938 50.304688 -45.453125 50.390625 -46.921875 C 50.472656 -48.398438 50.554688 -49.851562 50.640625 -51.28125 L 77.234375 -51.28125 L 65.390625 -15.75 Z M 9.828125 13.484375 C 10.078125 11.546875 10.390625 9.609375 10.765625 7.671875 C 11.148438 5.742188 11.632812 3.859375 12.21875 2.015625 C 15.414062 2.429688 18.25 2.722656 20.71875 2.890625 C 23.195312 3.066406 25.738281 3.15625 28.34375 3.15625 L 29.234375 3.15625 C 33.429688 3.15625 36.640625 3.003906 38.859375 2.703125 C 41.085938 2.410156 42.707031 1.78125 43.71875 0.8125 C 44.726562 -0.144531 45.523438 -1.675781 46.109375 -3.78125 C 41.410156 -3.695312 36.9375 -3.675781 32.6875 -3.71875 C 28.445312 -3.757812 24.691406 -4.113281 21.421875 -4.78125 L 6.921875 -42.453125 L 1.265625 -42.453125 C 1.265625 -43.878906 1.285156 -45.328125 1.328125 -46.796875 C 1.367188 -48.273438 1.429688 -49.769531 1.515625 -51.28125 L 21.421875 -51.28125 L 35.53125 -12.59375 L 64.375 -12.59375 C 62.363281 -6.882812 60.390625 -2.226562 58.453125 1.375 C 56.523438 4.988281 54.445312 7.800781 52.21875 9.8125 C 49.988281 11.832031 47.425781 13.222656 44.53125 13.984375 C 41.632812 14.742188 38.253906 15.125 34.390625 15.125 C 30.523438 15.125 26.300781 14.972656 21.71875 14.671875 C 17.144531 14.378906 13.179688 13.984375 9.828125 13.484375 Z M 8.8125 27.34375 C 8.8125 25.65625 8.875 23.972656 9 22.296875 C 9.132812 20.617188 9.242188 18.941406 9.328125 17.265625 C 12.765625 17.597656 16.6875 17.910156 21.09375 18.203125 C 25.507812 18.492188 29.898438 18.640625 34.265625 18.640625 C 38.460938 18.640625 42.15625 18.238281 45.34375 17.4375 C 48.539062 16.644531 51.421875 15.21875 53.984375 13.15625 C 56.546875 11.101562 58.914062 8.125 61.09375 4.21875 C 63.28125 0.3125 65.425781 -4.703125 67.53125 -10.828125 L 81.390625 -51.28125 L 99.53125 -51.28125 C 99.101562 -48 98.640625 -45.054688 98.140625 -42.453125 L 92.46875 -42.453125 L 81.140625 -9.703125 C 78.359375 -1.722656 75.644531 4.785156 73 9.828125 C 70.363281 14.867188 67.363281 18.773438 64 21.546875 C 60.632812 24.316406 56.597656 26.222656 51.890625 27.265625 C 47.191406 28.316406 41.441406 28.84375 34.640625 28.84375 C 29.691406 28.84375 24.882812 28.675781 20.21875 28.34375 C 15.5625 28.007812 11.757812 27.675781 8.8125 27.34375 Z M 8.8125 27.34375 "/></g></g></g><g fill="#ffffff" fill-opacity="1"><g transform="translate(601.979819, 119.311039)"><g><path d="M 3.28125 -54.671875 C 3.445312 -56.179688 3.632812 -57.671875 3.84375 -59.140625 C 4.050781 -60.617188 4.320312 -62.03125 4.65625 -63.375 C 6.082031 -63.457031 7.46875 -63.5 8.8125 -63.5 C 10.15625 -63.5 11.5 -63.5 12.84375 -63.5 C 12.675781 -70.71875 13.707031 -76.300781 15.9375 -80.25 C 18.164062 -84.195312 22.007812 -86.925781 27.46875 -88.4375 C 32.925781 -89.945312 40.316406 -90.703125 49.640625 -90.703125 C 52.992188 -90.703125 56.179688 -90.660156 59.203125 -90.578125 C 62.234375 -90.492188 64.84375 -90.285156 67.03125 -89.953125 C 67.03125 -88.609375 67.03125 -87.242188 67.03125 -85.859375 C 67.03125 -84.472656 66.941406 -83.066406 66.765625 -81.640625 C 56.859375 -82.566406 49.238281 -82.628906 43.90625 -81.828125 C 38.570312 -81.023438 34.894531 -79.28125 32.875 -76.59375 C 30.863281 -73.90625 29.859375 -70.128906 29.859375 -65.265625 L 29.859375 -54.671875 Z M 64.375 -54.671875 L 33.390625 -54.671875 L 33.390625 -64.375 C 33.390625 -69.164062 34.289062 -72.710938 36.09375 -75.015625 C 37.894531 -77.328125 41.191406 -78.691406 45.984375 -79.109375 C 50.773438 -79.535156 57.617188 -79.367188 66.515625 -78.609375 C 66.429688 -77.097656 66.265625 -75.566406 66.015625 -74.015625 C 65.765625 -72.460938 65.472656 -70.972656 65.140625 -69.546875 C 63.796875 -69.710938 62.578125 -69.796875 61.484375 -69.796875 C 60.390625 -69.796875 59.128906 -69.796875 57.703125 -69.796875 C 54.421875 -69.796875 52.234375 -69.207031 51.140625 -68.03125 C 50.054688 -66.851562 49.679688 -65.300781 50.015625 -63.375 L 64.5 -63 C 64.5 -61.5625 64.5 -60.148438 64.5 -58.765625 C 64.5 -57.378906 64.457031 -56.015625 64.375 -54.671875 Z M 4.28125 -11.71875 C 4.445312 -13.394531 4.632812 -15.070312 4.84375 -16.75 C 5.0625 -18.4375 5.335938 -20.117188 5.671875 -21.796875 L 13.109375 -21.796875 L 13.109375 -42.078125 C 11.421875 -42.160156 9.695312 -42.203125 7.9375 -42.203125 C 6.175781 -42.203125 4.453125 -42.242188 2.765625 -42.328125 C 2.765625 -43.835938 2.785156 -45.347656 2.828125 -46.859375 C 2.867188 -48.378906 2.9375 -49.851562 3.03125 -51.28125 L 29.859375 -51.28125 L 29.859375 -11.71875 Z M 62.734375 -11.71875 L 33.390625 -11.71875 L 33.390625 -51.28125 L 64 -51.28125 C 63.914062 -49.769531 63.769531 -48.273438 63.5625 -46.796875 C 63.351562 -45.328125 63.078125 -43.835938 62.734375 -42.328125 C 60.640625 -42.242188 58.539062 -42.179688 56.4375 -42.140625 C 54.34375 -42.097656 52.242188 -42.078125 50.140625 -42.078125 L 50.140625 -21.796875 L 63.125 -21.796875 C 63.125 -18.347656 62.992188 -14.988281 62.734375 -11.71875 Z M 3.53125 0 C 3.613281 -1.425781 3.695312 -2.875 3.78125 -4.34375 C 3.863281 -5.8125 3.945312 -7.21875 4.03125 -8.5625 L 62.484375 -8.5625 C 62.066406 -5.539062 61.5625 -2.6875 60.96875 0 C 57.113281 0.164062 52.6875 0.289062 47.6875 0.375 C 42.6875 0.457031 37.539062 0.5 32.25 0.5 C 26.957031 0.5 21.832031 0.457031 16.875 0.375 C 11.925781 0.289062 7.476562 0.164062 3.53125 0 Z M 3.53125 0 "/></g></g></g><g fill="#ffffff" fill-opacity="1"><g transform="translate(668.873952, 119.311039)"><g><path d="M 52.78125 -82.640625 L 12.34375 -82.640625 C 12.507812 -84.066406 12.738281 -85.453125 13.03125 -86.796875 C 13.332031 -88.140625 13.691406 -89.441406 14.109375 -90.703125 C 20.578125 -91.210938 27 -91.445312 33.375 -91.40625 C 39.757812 -91.363281 46.398438 -91.128906 53.296875 -90.703125 C 53.296875 -89.617188 53.253906 -88.359375 53.171875 -86.921875 C 53.085938 -85.492188 52.957031 -84.066406 52.78125 -82.640625 Z M 11.59375 -70.671875 C 11.59375 -73.703125 11.71875 -76.601562 11.96875 -79.375 L 52.40625 -79.375 C 52.238281 -77.769531 52.007812 -76.210938 51.71875 -74.703125 C 51.425781 -73.191406 51.109375 -71.847656 50.765625 -70.671875 C 38.585938 -70.253906 25.53125 -70.253906 11.59375 -70.671875 Z M 57.453125 -11.71875 L 33.390625 -11.71875 L 33.390625 -54.671875 L 3.40625 -54.671875 C 3.738281 -57.953125 4.238281 -61.144531 4.90625 -64.25 C 12.382812 -64.582031 20.175781 -64.75 28.28125 -64.75 C 36.382812 -64.75 44.132812 -64.582031 51.53125 -64.25 L 50.140625 -42.453125 L 50.140625 -21.796875 L 57.828125 -21.796875 C 57.828125 -18.347656 57.703125 -14.988281 57.453125 -11.71875 Z M 4.40625 -11.71875 C 4.570312 -13.394531 4.757812 -15.070312 4.96875 -16.75 C 5.1875 -18.4375 5.460938 -20.117188 5.796875 -21.796875 L 13.109375 -21.796875 L 13.109375 -41.953125 C 11.335938 -42.035156 9.570312 -42.117188 7.8125 -42.203125 C 6.050781 -42.285156 4.328125 -42.367188 2.640625 -42.453125 C 2.722656 -44.046875 2.804688 -45.578125 2.890625 -47.046875 C 2.984375 -48.523438 3.070312 -49.9375 3.15625 -51.28125 L 29.859375 -51.28125 L 29.859375 -11.71875 Z M 3.65625 0 C 3.738281 -1.425781 3.820312 -2.875 3.90625 -4.34375 C 3.988281 -5.8125 4.070312 -7.21875 4.15625 -8.5625 L 57.203125 -8.5625 C 57.023438 -7.050781 56.8125 -5.601562 56.5625 -4.21875 C 56.3125 -2.832031 56.0625 -1.425781 55.8125 0 C 52.53125 0.164062 48.535156 0.289062 43.828125 0.375 C 39.128906 0.457031 34.238281 0.5 29.15625 0.5 C 24.082031 0.5 19.296875 0.457031 14.796875 0.375 C 10.304688 0.289062 6.59375 0.164062 3.65625 0 Z M 3.65625 0 "/></g></g></g><g fill="#ffffff" fill-opacity="1"><g transform="translate(728.083506, 119.311039)"><g><path d="M 108.71875 -11.71875 L 83.40625 -11.71875 C 83.820312 -14.320312 84.195312 -17.785156 84.53125 -22.109375 C 84.875 -26.429688 85.046875 -31.953125 85.046875 -38.671875 C 85.046875 -42.285156 84.582031 -45.3125 83.65625 -47.75 C 82.726562 -50.1875 80.941406 -52.035156 78.296875 -53.296875 C 75.648438 -54.554688 71.722656 -55.1875 66.515625 -55.1875 C 63.410156 -55.1875 60.257812 -55.015625 57.0625 -54.671875 C 53.875 -54.335938 51.0625 -53.707031 48.625 -52.78125 C 50.726562 -56.894531 53.0625 -59.9375 55.625 -61.90625 C 58.1875 -63.882812 61.125 -65.1875 64.4375 -65.8125 C 67.757812 -66.445312 71.601562 -66.765625 75.96875 -66.765625 C 81.757812 -66.765625 86.585938 -66.34375 90.453125 -65.5 C 94.316406 -64.664062 97.273438 -62.882812 99.328125 -60.15625 C 101.390625 -57.425781 102.503906 -53.207031 102.671875 -47.5 L 102.796875 -43.71875 C 102.878906 -39.851562 102.691406 -35.90625 102.234375 -31.875 C 101.773438 -27.84375 101.289062 -24.484375 100.78125 -21.796875 L 109.234375 -21.796875 C 109.234375 -20.117188 109.1875 -18.4375 109.09375 -16.75 C 109.007812 -15.070312 108.882812 -13.394531 108.71875 -11.71875 Z M 63 0 C 63.414062 -3.269531 63.769531 -7.023438 64.0625 -11.265625 C 64.351562 -15.515625 64.582031 -19.109375 64.75 -22.046875 L 64.5 -32.375 C 64.414062 -35.90625 63.722656 -38.128906 62.421875 -39.046875 C 61.117188 -39.972656 59.125 -40.4375 56.4375 -40.4375 C 54.257812 -40.4375 51.953125 -40.1875 49.515625 -39.6875 L 49.515625 -21.796875 L 57.578125 -21.796875 C 57.578125 -18.265625 57.453125 -14.738281 57.203125 -11.21875 L 57.203125 -11.71875 L 32.75 -11.71875 L 32.75 -54.671875 L 3.28125 -54.671875 C 3.695312 -57.953125 4.238281 -61.144531 4.90625 -64.25 C 8.601562 -64.5 12.613281 -64.644531 16.9375 -64.6875 C 21.269531 -64.726562 25.617188 -64.726562 29.984375 -64.6875 C 34.347656 -64.644531 38.335938 -64.5 41.953125 -64.25 L 46.609375 -49.140625 L 46.859375 -49.140625 C 49.640625 -50.140625 52.644531 -50.847656 55.875 -51.265625 C 59.101562 -51.691406 62.273438 -51.90625 65.390625 -51.90625 C 70.085938 -51.90625 73.59375 -51.335938 75.90625 -50.203125 C 78.21875 -49.066406 79.726562 -47.40625 80.4375 -45.21875 C 81.15625 -43.039062 81.515625 -40.441406 81.515625 -37.421875 C 81.515625 -30.535156 81.300781 -24.90625 80.875 -20.53125 C 80.457031 -16.164062 80 -12.175781 79.5 -8.5625 L 108.46875 -8.5625 C 108.300781 -7.050781 108.070312 -5.582031 107.78125 -4.15625 C 107.488281 -2.726562 107.171875 -1.34375 106.828125 0 C 104.140625 0.25 100.90625 0.414062 97.125 0.5 C 93.351562 0.582031 89.363281 0.625 85.15625 0.625 C 80.957031 0.625 76.925781 0.5625 73.0625 0.4375 C 69.207031 0.3125 65.851562 0.164062 63 0 Z M 4.65625 -11.71875 C 4.820312 -13.394531 5.007812 -15.070312 5.21875 -16.75 C 5.4375 -18.4375 5.710938 -20.117188 6.046875 -21.796875 L 12.46875 -21.796875 L 12.46875 -42.453125 L 2.640625 -42.453125 L 3.03125 -51.28125 L 29.234375 -51.28125 L 29.234375 -11.71875 Z M 3.90625 0 C 3.988281 -1.425781 4.070312 -2.875 4.15625 -4.34375 C 4.238281 -5.8125 4.320312 -7.21875 4.40625 -8.5625 L 56.9375 -8.5625 C 56.769531 -7.050781 56.5625 -5.601562 56.3125 -4.21875 C 56.0625 -2.832031 55.8125 -1.425781 55.5625 0 C 52.28125 0.164062 48.375 0.289062 43.84375 0.375 C 39.3125 0.457031 34.609375 0.5 29.734375 0.5 C 24.859375 0.5 20.148438 0.457031 15.609375 0.375 C 11.078125 0.289062 7.175781 0.164062 3.90625 0 Z M 3.90625 0 "/></g></g></g></g></g></svg>