<svg xmlns="http://www.w3.org/2000/svg" xmlns:xlink="http://www.w3.org/1999/xlink" width="1500" zoomAndPan="magnify" viewBox="0 0 1125 283.499996" height="378" preserveAspectRatio="xMidYMid meet" version="1.0"><defs><g/><clipPath id="278e1c14df"><path d="M 164.792969 188.082031 L 260.027344 188.082031 L 260.027344 233.316406 L 164.792969 233.316406 Z M 164.792969 188.082031 " clip-rule="nonzero"/></clipPath><clipPath id="997bcd658c"><path d="M 212.40625 188.082031 L 260.019531 210.699219 L 212.40625 233.316406 L 164.792969 210.699219 Z M 212.40625 188.082031 " clip-rule="nonzero"/></clipPath><clipPath id="158f16d3d8"><path d="M 0.792969 0.0820312 L 96.027344 0.0820312 L 96.027344 45.316406 L 0.792969 45.316406 Z M 0.792969 0.0820312 " clip-rule="nonzero"/></clipPath><clipPath id="39a823ce30"><path d="M 48.40625 0.0820312 L 96.019531 22.699219 L 48.40625 45.316406 L 0.792969 22.699219 Z M 48.40625 0.0820312 " clip-rule="nonzero"/></clipPath><clipPath id="863f14c0a4"><rect x="0" width="97" y="0" height="46"/></clipPath><clipPath id="2883b73ef7"><path d="M 38.511719 182.691406 L 133.746094 182.691406 L 133.746094 227.921875 L 38.511719 227.921875 Z M 38.511719 182.691406 " clip-rule="nonzero"/></clipPath><clipPath id="600686fc32"><path d="M 86.125 182.691406 L 133.734375 205.308594 L 86.125 227.921875 L 38.511719 205.308594 Z M 86.125 182.691406 " clip-rule="nonzero"/></clipPath><clipPath id="3e88da88ee"><path d="M 0.511719 0.691406 L 95.746094 0.691406 L 95.746094 45.921875 L 0.511719 45.921875 Z M 0.511719 0.691406 " clip-rule="nonzero"/></clipPath><clipPath id="ab89e337ab"><path d="M 48.125 0.691406 L 95.734375 23.308594 L 48.125 45.921875 L 0.511719 23.308594 Z M 48.125 0.691406 " clip-rule="nonzero"/></clipPath><clipPath id="3c4332713f"><rect x="0" width="96" y="0" height="46"/></clipPath><clipPath id="e6d6d93d21"><path d="M 34.449219 103.957031 L 267.574219 103.957031 L 267.574219 261.425781 L 34.449219 261.425781 Z M 34.449219 103.957031 " clip-rule="nonzero"/></clipPath><clipPath id="4fab879789"><path d="M 150.902344 103.957031 L 267.355469 182.691406 L 150.902344 261.425781 L 34.449219 182.691406 Z M 150.902344 103.957031 " clip-rule="nonzero"/></clipPath><clipPath id="fae129801a"><path d="M 0.449219 0.957031 L 233.402344 0.957031 L 233.402344 158.425781 L 0.449219 158.425781 Z M 0.449219 0.957031 " clip-rule="nonzero"/></clipPath><clipPath id="2bfef2f555"><path d="M 116.902344 0.957031 L 233.355469 79.691406 L 116.902344 158.425781 L 0.449219 79.691406 Z M 116.902344 0.957031 " clip-rule="nonzero"/></clipPath><clipPath id="3c8777da14"><rect x="0" width="234" y="0" height="159"/></clipPath><clipPath id="95081d4b21"><path d="M 63.964844 43.664062 L 232.984375 43.664062 L 232.984375 248.996094 L 63.964844 248.996094 Z M 63.964844 43.664062 " clip-rule="nonzero"/></clipPath><clipPath id="29946e4cac"><path d="M 148.472656 43.664062 L 232.984375 146.109375 L 148.472656 248.558594 L 63.964844 146.109375 Z M 148.472656 43.664062 " clip-rule="nonzero"/></clipPath><clipPath id="fa9888f62c"><path d="M 0.964844 0.664062 L 169.984375 0.664062 L 169.984375 205.679688 L 0.964844 205.679688 Z M 0.964844 0.664062 " clip-rule="nonzero"/></clipPath><clipPath id="337612532b"><path d="M 85.472656 0.664062 L 169.984375 103.109375 L 85.472656 205.558594 L 0.964844 103.109375 Z M 85.472656 0.664062 " clip-rule="nonzero"/></clipPath><clipPath id="e43dc3bd99"><rect x="0" width="170" y="0" height="206"/></clipPath></defs><g clip-path="url(#278e1c14df)"><g clip-path="url(#997bcd658c)"><g transform="matrix(1, 0, 0, 1, 164, 188)"><g clip-path="url(#863f14c0a4)"><g clip-path="url(#158f16d3d8)"><g clip-path="url(#39a823ce30)"><path fill="#ffffff" d="M 0.792969 0.0820312 L 96.027344 0.0820312 L 96.027344 45.316406 L 0.792969 45.316406 Z M 0.792969 0.0820312 " fill-opacity="1" fill-rule="nonzero"/></g></g></g></g></g></g><g clip-path="url(#2883b73ef7)"><g clip-path="url(#600686fc32)"><g transform="matrix(1, 0, 0, 1, 38, 182)"><g clip-path="url(#3c4332713f)"><g clip-path="url(#3e88da88ee)"><g clip-path="url(#ab89e337ab)"><path fill="#ffffff" d="M 0.511719 0.691406 L 95.746094 0.691406 L 95.746094 45.921875 L 0.511719 45.921875 Z M 0.511719 0.691406 " fill-opacity="1" fill-rule="nonzero"/></g></g></g></g></g></g><g clip-path="url(#e6d6d93d21)"><g clip-path="url(#4fab879789)"><g transform="matrix(1, 0, 0, 1, 34, 103)"><g clip-path="url(#3c8777da14)"><g clip-path="url(#fae129801a)"><g clip-path="url(#2bfef2f555)"><path fill="#ffffff" d="M 0.449219 0.957031 L 233.574219 0.957031 L 233.574219 158.425781 L 0.449219 158.425781 Z M 0.449219 0.957031 " fill-opacity="1" fill-rule="nonzero"/></g></g></g></g></g></g><g clip-path="url(#95081d4b21)"><g clip-path="url(#29946e4cac)"><g transform="matrix(1, 0, 0, 1, 63, 43)"><g clip-path="url(#e43dc3bd99)"><g clip-path="url(#fa9888f62c)"><g clip-path="url(#337612532b)"><path fill="#ffffff" d="M 0.964844 0.664062 L 169.984375 0.664062 L 169.984375 205.335938 L 0.964844 205.335938 Z M 0.964844 0.664062 " fill-opacity="1" fill-rule="nonzero"/></g></g></g></g></g></g><path fill="#d9d9d9" d="M 148.863281 113.59375 C 137.144531 113.59375 99.363281 174.820312 105.097656 185.125 C 110.84375 195.453125 186.949219 195.347656 192.628906 185.125 C 198.308594 174.925781 160.636719 113.59375 148.863281 113.59375 Z M 148.863281 113.59375 " fill-opacity="1" fill-rule="nonzero"/><path fill="#d9d9d9" d="M 148.863281 22.085938 C 113.488281 22.085938 -0.34375 206.535156 17 237.691406 C 34.347656 268.835938 263.566406 268.476562 280.738281 237.691406 C 297.910156 206.894531 184.25 22.085938 148.851562 22.085938 Z M 235.300781 210.691406 C 224.050781 230.871094 73.867188 231.113281 62.480469 210.691406 C 51.121094 190.269531 125.71875 69.398438 148.863281 69.398438 C 172.011719 69.398438 246.554688 190.472656 235.300781 210.691406 Z M 235.300781 210.691406 " fill-opacity="1" fill-rule="nonzero"/><g fill="#ffffff" fill-opacity="1"><g transform="translate(303.487741, 195.474462)"><g><path d="M 3.578125 -0.171875 L 6.4375 -87.109375 L 38.28125 -87.109375 L 39.703125 -69.40625 C 41.015625 -72.5 42.832031 -75.566406 45.15625 -78.609375 C 47.488281 -81.648438 50.503906 -84.1875 54.203125 -86.21875 C 57.898438 -88.25 62.367188 -89.265625 67.609375 -89.265625 C 73.929688 -89.265625 78.878906 -87.921875 82.453125 -85.234375 C 86.035156 -82.546875 88.660156 -79.117188 90.328125 -74.953125 C 92.710938 -78.765625 95.898438 -82.101562 99.890625 -84.96875 C 103.890625 -87.832031 108.992188 -89.265625 115.203125 -89.265625 C 121.515625 -89.265625 126.429688 -87.953125 129.953125 -85.328125 C 133.472656 -82.703125 136.066406 -79.269531 137.734375 -75.03125 C 139.398438 -70.800781 140.441406 -66.179688 140.859375 -61.171875 C 141.273438 -56.160156 141.484375 -51.269531 141.484375 -46.5 L 141.484375 -0.171875 L 103.03125 -0.171875 L 102.671875 -37.5625 C 102.671875 -39.945312 102.222656 -41.851562 101.328125 -43.28125 C 100.429688 -44.71875 98.972656 -45.019531 96.953125 -44.1875 C 96.472656 -44.0625 95.9375 -43.757812 95.34375 -43.28125 C 94.75 -42.8125 94.332031 -42.039062 94.09375 -40.96875 L 94.09375 -0.171875 L 55.453125 -0.171875 L 55.09375 -37.5625 C 55.09375 -39.945312 54.613281 -41.851562 53.65625 -43.28125 C 52.707031 -44.71875 51.21875 -45.019531 49.1875 -44.1875 C 48.59375 -44.0625 48.023438 -43.726562 47.484375 -43.1875 C 46.953125 -42.65625 46.566406 -41.734375 46.328125 -40.421875 L 47.21875 -0.171875 Z M 3.578125 -0.171875 "/></g></g></g><g fill="#ffffff" fill-opacity="1"><g transform="translate(448.546558, 195.474462)"><g><path d="M 6.96875 -20.21875 C 6.96875 -20.21875 8.160156 -19.679688 10.546875 -18.609375 C 12.929688 -17.535156 16.332031 -16.457031 20.75 -15.375 C 25.164062 -14.300781 30.351562 -13.648438 36.3125 -13.421875 C 40.601562 -13.296875 43.851562 -14.007812 46.0625 -15.5625 C 48.269531 -17.113281 49.757812 -18.988281 50.53125 -21.1875 C 51.300781 -23.394531 51.75 -25.335938 51.875 -27.015625 C 49.375 -25.097656 46.421875 -23.515625 43.015625 -22.265625 C 39.617188 -21.015625 35.65625 -20.332031 31.125 -20.21875 C 24.5625 -19.976562 19.429688 -20.8125 15.734375 -22.71875 C 12.046875 -24.625 9.335938 -27.21875 7.609375 -30.5 C 5.878906 -33.78125 4.773438 -37.328125 4.296875 -41.140625 C 3.816406 -44.953125 3.578125 -48.648438 3.578125 -52.234375 L 3.578125 -87.296875 L 43.828125 -87.296875 L 44.1875 -48.46875 C 44.1875 -46.5625 45.078125 -45.28125 46.859375 -44.625 C 48.648438 -43.96875 50.441406 -43.96875 52.234375 -44.625 C 54.023438 -45.28125 54.921875 -46.5625 54.921875 -48.46875 L 54.203125 -87.296875 L 93.734375 -87.296875 L 93.734375 -49.90625 C 93.734375 -40.007812 93.550781 -31.835938 93.1875 -25.390625 C 92.832031 -18.953125 91.910156 -13.617188 90.421875 -9.390625 C 88.929688 -5.160156 86.578125 -1.492188 83.359375 1.609375 C 80.140625 4.710938 75.664062 7.875 69.9375 11.09375 C 65.40625 13.71875 60.335938 15.414062 54.734375 16.1875 C 49.128906 16.957031 43.523438 17.164062 37.921875 16.8125 C 32.316406 16.457031 27.1875 15.832031 22.53125 14.9375 C 17.882812 14.039062 14.128906 13.175781 11.265625 12.34375 C 8.398438 11.507812 6.96875 11.09375 6.96875 11.09375 Z M 6.96875 -20.21875 "/></g></g></g><g fill="#ffffff" fill-opacity="1"><g transform="translate(545.848657, 195.474462)"><g><path d="M 3.578125 -21.28125 L 3.578125 -55.265625 L 57.234375 -55.265625 L 57.234375 -21.28125 Z M 3.578125 -21.28125 "/></g></g></g><g fill="#ffffff" fill-opacity="1"><g transform="translate(606.662464, 195.474462)"><g><path d="M 42.03125 0.890625 C 34.40625 0.890625 27.671875 0.144531 21.828125 -1.34375 C 15.984375 -2.832031 10.4375 -4.410156 5.1875 -6.078125 L 5.1875 -36.84375 C 7.21875 -35.894531 9.867188 -35 13.140625 -34.15625 C 16.421875 -33.320312 19.878906 -32.664062 23.515625 -32.1875 C 27.160156 -31.71875 30.410156 -31.421875 33.265625 -31.296875 C 34.703125 -31.296875 35.421875 -31.894531 35.421875 -33.09375 C 35.421875 -34.164062 34.765625 -34.820312 33.453125 -35.0625 C 23.910156 -36.25 16.546875 -38.722656 11.359375 -42.484375 C 6.171875 -46.242188 3.578125 -52.414062 3.578125 -61 C 3.578125 -67.789062 5.332031 -73.332031 8.84375 -77.625 C 12.363281 -81.925781 17.101562 -85.117188 23.0625 -87.203125 C 29.03125 -89.285156 35.769531 -90.328125 43.28125 -90.328125 C 50.320312 -90.328125 57.148438 -89.582031 63.765625 -88.09375 C 70.390625 -86.601562 75.90625 -85.023438 80.3125 -83.359375 L 80.3125 -47.578125 C 73.875 -50.921875 64.753906 -52.648438 52.953125 -52.765625 C 51.398438 -52.765625 50.625 -52.226562 50.625 -51.15625 C 50.625 -50.082031 51.28125 -49.425781 52.59375 -49.1875 C 59.382812 -48.476562 64.957031 -47.375 69.3125 -45.875 C 73.664062 -44.382812 76.914062 -42.117188 79.0625 -39.078125 C 81.207031 -36.035156 82.28125 -31.65625 82.28125 -25.9375 C 82.28125 -19.132812 80.550781 -13.765625 77.09375 -9.828125 C 73.632812 -5.898438 68.863281 -3.128906 62.78125 -1.515625 C 56.695312 0.0859375 49.78125 0.890625 42.03125 0.890625 Z M 42.03125 0.890625 "/></g></g></g><g fill="#ffffff" fill-opacity="1"><g transform="translate(690.72852, 195.474462)"><g><path d="M 49.015625 0 C 40.421875 0 32.695312 -1.429688 25.84375 -4.296875 C 18.988281 -7.160156 13.5625 -11.929688 9.5625 -18.609375 C 5.570312 -25.285156 3.578125 -34.347656 3.578125 -45.796875 C 3.578125 -56.640625 5.570312 -65.25 9.5625 -71.625 C 13.5625 -78.007812 18.988281 -82.570312 25.84375 -85.3125 C 32.695312 -88.0625 40.421875 -89.4375 49.015625 -89.4375 C 63.085938 -89.4375 73.550781 -85.679688 80.40625 -78.171875 C 87.257812 -70.660156 90.75 -60.164062 90.875 -46.6875 L 90.875 -38.8125 L 52.765625 -36.125 L 52.765625 -40.25 C 52.765625 -42.394531 51.898438 -43.820312 50.171875 -44.53125 C 48.441406 -45.25 46.710938 -45.160156 44.984375 -44.265625 C 43.253906 -43.378906 42.390625 -41.5625 42.390625 -38.8125 L 42.390625 -35.78125 C 42.390625 -33.15625 43.429688 -31.273438 45.515625 -30.140625 C 47.609375 -29.003906 50.320312 -28.347656 53.65625 -28.171875 C 57 -27.992188 60.488281 -28.140625 64.125 -28.609375 C 67.757812 -29.085938 71.128906 -29.710938 74.234375 -30.484375 C 77.335938 -31.265625 79.722656 -32.015625 81.390625 -32.734375 L 81.390625 -8.234375 C 77.578125 -5.960938 74.03125 -4.226562 70.75 -3.03125 C 67.46875 -1.84375 64.125 -1.039062 60.71875 -0.625 C 57.320312 -0.207031 53.421875 0 49.015625 0 Z M 49.015625 0 "/></g></g></g><g fill="#ffffff" fill-opacity="1"><g transform="translate(785.168796, 195.474462)"><g><path d="M 6.96875 -20.21875 C 6.96875 -20.21875 8.160156 -19.679688 10.546875 -18.609375 C 12.929688 -17.535156 16.332031 -16.457031 20.75 -15.375 C 25.164062 -14.300781 30.351562 -13.648438 36.3125 -13.421875 C 40.601562 -13.296875 43.851562 -14.007812 46.0625 -15.5625 C 48.269531 -17.113281 49.757812 -18.988281 50.53125 -21.1875 C 51.300781 -23.394531 51.75 -25.335938 51.875 -27.015625 C 49.375 -25.097656 46.421875 -23.515625 43.015625 -22.265625 C 39.617188 -21.015625 35.65625 -20.332031 31.125 -20.21875 C 24.5625 -19.976562 19.429688 -20.8125 15.734375 -22.71875 C 12.046875 -24.625 9.335938 -27.21875 7.609375 -30.5 C 5.878906 -33.78125 4.773438 -37.328125 4.296875 -41.140625 C 3.816406 -44.953125 3.578125 -48.648438 3.578125 -52.234375 L 3.578125 -87.296875 L 43.828125 -87.296875 L 44.1875 -48.46875 C 44.1875 -46.5625 45.078125 -45.28125 46.859375 -44.625 C 48.648438 -43.96875 50.441406 -43.96875 52.234375 -44.625 C 54.023438 -45.28125 54.921875 -46.5625 54.921875 -48.46875 L 54.203125 -87.296875 L 93.734375 -87.296875 L 93.734375 -49.90625 C 93.734375 -40.007812 93.550781 -31.835938 93.1875 -25.390625 C 92.832031 -18.953125 91.910156 -13.617188 90.421875 -9.390625 C 88.929688 -5.160156 86.578125 -1.492188 83.359375 1.609375 C 80.140625 4.710938 75.664062 7.875 69.9375 11.09375 C 65.40625 13.71875 60.335938 15.414062 54.734375 16.1875 C 49.128906 16.957031 43.523438 17.164062 37.921875 16.8125 C 32.316406 16.457031 27.1875 15.832031 22.53125 14.9375 C 17.882812 14.039062 14.128906 13.175781 11.265625 12.34375 C 8.398438 11.507812 6.96875 11.09375 6.96875 11.09375 Z M 6.96875 -20.21875 "/></g></g></g><g fill="#ffffff" fill-opacity="1"><g transform="translate(882.47086, 195.474462)"><g><path d="M 9.484375 0 L 10.375 -33.8125 L 3.578125 -33.8125 L 3.578125 -71.546875 L 10.375 -74.953125 L 10.375 -88.1875 C 10.375 -97.488281 12.9375 -104.460938 18.0625 -109.109375 C 23.195312 -113.765625 30.296875 -116.09375 39.359375 -116.09375 C 45.671875 -116.09375 50.707031 -115.789062 54.46875 -115.1875 C 58.226562 -114.59375 62.015625 -113.640625 65.828125 -112.328125 L 65.828125 -81.75 L 51.875 -81.75 C 50.445312 -81.75 49.734375 -80.972656 49.734375 -79.421875 L 49.90625 -74.953125 L 65.828125 -74.953125 L 65.828125 -33.8125 L 50.984375 -33.8125 L 52.046875 0 Z M 9.484375 0 "/></g></g></g><g fill="#ffffff" fill-opacity="1"><g transform="translate(951.870173, 195.474462)"><g><path d="M 3.578125 0 L 6.4375 -86.9375 L 44.359375 -86.9375 L 47.046875 0 Z M 10.546875 -106.609375 C 10.546875 -110.660156 11.914062 -114.085938 14.65625 -116.890625 C 17.40625 -119.691406 20.804688 -121.09375 24.859375 -121.09375 C 28.921875 -121.09375 32.351562 -119.691406 35.15625 -116.890625 C 37.957031 -114.085938 39.359375 -110.660156 39.359375 -106.609375 C 39.359375 -102.671875 37.957031 -99.300781 35.15625 -96.5 C 32.351562 -93.695312 28.921875 -92.296875 24.859375 -92.296875 C 20.804688 -92.296875 17.40625 -93.695312 14.65625 -96.5 C 11.914062 -99.300781 10.546875 -102.671875 10.546875 -106.609375 Z M 10.546875 -106.609375 "/></g></g></g><g fill="#ffffff" fill-opacity="1"><g transform="translate(1002.488705, 195.474462)"><g><path d="M 3.578125 0 L 6.078125 -86.9375 L 35.78125 -86.9375 L 37.203125 -67.796875 C 38.640625 -70.890625 40.609375 -74.078125 43.109375 -77.359375 C 45.609375 -80.640625 48.882812 -83.410156 52.9375 -85.671875 C 57 -87.941406 62.007812 -89.078125 67.96875 -89.078125 C 74.769531 -89.078125 80.109375 -87.765625 83.984375 -85.140625 C 87.859375 -82.515625 90.6875 -79.085938 92.46875 -74.859375 C 94.257812 -70.628906 95.394531 -66.007812 95.875 -61 C 96.351562 -55.988281 96.59375 -51.039062 96.59375 -46.15625 L 96.59375 0 L 54.921875 0 L 54.734375 -36.125 C 54.734375 -38.632812 54.164062 -40.546875 53.03125 -41.859375 C 51.90625 -43.171875 50.566406 -43.945312 49.015625 -44.1875 C 47.460938 -44.425781 46.117188 -44.097656 44.984375 -43.203125 C 43.847656 -42.304688 43.28125 -40.84375 43.28125 -38.8125 L 44 0 Z M 3.578125 0 "/></g></g></g></svg>